<?xml version="1.0" encoding="UTF-8"?><svg id="Layer_1" xmlns="http://www.w3.org/2000/svg" viewBox="0 0 313.2 319.21"><defs><style>.cls-1{fill:#ccae1a;}.cls-2{fill:#8ab6dd;}.cls-3{fill:#fff;}.cls-4{fill:#1c2f5d;}.cls-5{fill:#d6141c;}.cls-6{fill:#198dc8;}</style></defs><g id="layer1"><g id="g1"><g id="g137"><g id="g54"><g id="g3"><path id="path2" class="cls-4" d="M198.56,319.21c-6.48,0-12.36-1-17.16-2.9-1.4.42-3.43.86-6.51,1.35-3.11.49-7.4,1.02-9.51,1.02-6.5,0-13.73-1.45-20.11-4.02-1.18.43-2.21.89-3.43,1.44-.73.32-1.49.66-2.37,1.04-1.3.55-2.66.83-4.06.83-1.66,0-3.29-.41-4.76-1.15-4.38,1.6-9.65,2.38-16.01,2.38-.26,0-.52,0-.79,0-14.63-.14-27.21-6.76-27.74-7.04-3.18-1.7-5.21-4.83-5.49-8.36-1.15-.26-2.33-.55-3.56-.89-4.89-1.35-9.81-3.49-14.65-6.38-1.42.38-3.09.67-4.85.67-.96,0-1.9-.09-2.8-.26-3.94-.77-7.52-3.34-9.57-6.88-1.99-3.43-1.87-7.39-1.5-10.8.08-.73.19-1.52.31-2.31-11.41-7.38-17.71-17.79-17.99-18.26-1.62-2.72-1.91-5.97-.86-8.87-.69-.65-1.38-1.33-2.08-2.04-2.92-.74-5.41-2.59-7.01-5.24-1.09-1.81-1.67-3.9-1.7-6.03-3.9-6.45-5.55-11.7-5.73-12.31-.88-2.92-.46-6,1.09-8.5-.56-.87-1.12-1.78-1.7-2.76C.7,200.46.22,188.55.19,187.24c-.06-2.82,1-5.49,2.9-7.46-.34-1.06-.67-2.17-.98-3.31-3.73-13.85-1.42-26.04-1.32-26.55.55-2.8,2.18-5.19,4.48-6.71-.07-1.05-.13-2.16-.16-3.33-.42-14.23,4.08-24,4.6-25.08.9-1.88,2.32-3.4,4.04-4.43.22-2.01.99-3.89,2.19-5.37,3.06-13.23,9.01-20.16,10.2-21.44,1.41-1.52,3.24-2.58,5.23-3.05.51-1.28,1.08-2.58,1.71-3.89,1.54-3.21,3.46-6.35,5.72-9.37-3.64-2.95-8.81-7.67-10.79-12-1.3-2.85-1.4-5.85-.3-8.67,1.68-4.29,5.64-6.88,7.5-7.66h.04c.96-.41,2.74-1.16,4.96-1.16,2.37,0,4.59.81,6.61,2.41,2,1.59,6,3.52,7.92,3.58.5-.37,1.09-.89,1.75-1.47,2.39-2.12,5.68-5.02,11.07-6.6l.23-.07c3.45-1.02,8.66-2.55,15.19-2.55s12.52,1.49,18.41,4.43c2.85-3.39,8.21-7.89,16.66-7.89.69,0,1.4.03,2.11.1.05-.19.09-.35.12-.46.31-1.25,1.13-2.56,2.28-3.69-1.18-2.03-1.95-4.51-1.3-7.13,1.4-5.57,5.29-8.77,10.69-8.77,1.97,0,4.1.41,6.48,1.28,6.74,2.42,10.09,5.42,12.57,8.67,1.29-.65,2.83-1.24,4.56-1.56.05-.19.11-.36.17-.49,0-.14,0-.37-.05-.76-.08-.82.02-1.53.16-2.07-1-2.63-1.68-7.34,1.32-10.98,1.95-2.36,4.86-3.72,7.96-3.72,1.16,0,2.29.18,3.37.54,1.41.47,3.84.73,7.52,1.14l.39.04c4.07.44,7,1.75,8.63,2.54.01,0,.03,0,.04,0,.74-.17,1.76-.41,2.93-.41s2.19.22,3.16.66l.11.05c2.73,1.23,5.09,2.69,6.41,8.24.5,1.76,2.59,5.01,3.84,6.96.72,1.12,1.4,1.9,2.13,2.73.72.83,1.47,1.67,2.19,2.79.73,1.11,1.35,2.32,1.88,3.46h.01c2.37,0,4.58.73,6.43,2.07.71-.1,1.51-.17,2.38-.17,3.89,0,7.22,1.52,9.38,4.29,1,1.29,1.73,2.72,2.16,4.21.16-.14.33-.27.5-.4,1.79-1.34,4.01-2.08,6.25-2.08,1.69,0,3.37.41,4.86,1.2,1.01.53,10.03,5.44,17.47,14.77.84,1.06,1.64,2.11,2.37,3.14,2.36.05,4.64.9,6.46,2.41.9.75,8.92,7.61,14.13,18.47.63,1.31,1.2,2.61,1.71,3.89,1.99.47,3.82,1.53,5.24,3.05,1.22,1.31,7.46,8.58,10.43,22.48.27,1.29.51,2.51.7,3.69,2.28.98,4.18,2.75,5.3,5.08.52,1.07,5.02,10.85,4.6,25.07-.04,1.17-.09,2.28-.16,3.33,2.3,1.51,3.93,3.9,4.48,6.71.1.51,2.41,12.7-1.32,26.55-.31,1.14-.63,2.24-.98,3.31,1.9,1.97,2.96,4.64,2.9,7.46-.03,1.32-.51,13.22-7.84,25.67-.57.98-1.14,1.89-1.7,2.76,1.55,2.51,1.98,5.59,1.1,8.5-.39,1.29-4.09,12.86-13.98,23.11-.85.88-1.7,1.72-2.54,2.51,1.05,2.9.76,6.15-.86,8.87-.74,1.25-7.63,12.39-20.26,19.65-.88.51-1.73.98-2.57,1.42.53,3.4-.63,6.84-3.21,9.23-.44.41-10.89,10.03-25,13.93-1.23.34-2.41.63-3.56.89-.28,3.53-2.32,6.67-5.49,8.36-.52.28-13.09,6.89-27.74,7.04-.26,0-.52,0-.78,0h0Z"/><path id="path3" class="cls-3" d="M305.46,181.92c-.26-.15-.54-.27-.82-.38.74-1.88,1.42-3.95,2.03-6.22,3.45-12.84,1.34-24.02,1.24-24.49-.42-2.17-2.03-3.92-4.15-4.52-.24-.07-.47-.12-.71-.16.27-2.15.4-4.3.47-6.37.39-13.36-3.96-22.57-4.15-22.96-.95-1.97-2.91-3.25-5.09-3.32-.06,0-.13,0-.2,0-.21-1.99-.56-4.13-1.06-6.46-2.78-13-8.65-19.62-9.31-20.33-1.13-1.21-2.69-1.88-4.3-1.88-.28,0-.57.02-.85.06-.67-2.01-1.52-4.1-2.56-6.26-4.86-10.16-12.6-16.66-12.92-16.93-1.08-.89-2.41-1.35-3.75-1.35-.67,0-1.34.12-1.98.35-1.06-1.67-2.31-3.41-3.74-5.21-6.99-8.77-15.66-13.39-16.02-13.58-.86-.45-1.8-.67-2.73-.67-1.24,0-2.48.4-3.52,1.17-1.77,1.33-2.64,3.53-2.27,5.71-.74-.4-1.5-.79-2.28-1.17-1.14-.55-2.27-1.04-3.36-1.47.52-1.28,1.41-4.51-1.1-7.73-3.23-4.15-9.5-1.94-9.5-1.94-3.23-4.06-7.93-1.94-7.93-1.94-.65-1.85-1.66-4.25-2.86-6.09-1.2-1.85-2.68-2.95-4.34-5.54-1.66-2.59-3.78-5.91-4.43-8.3-.92-3.97-2.12-4.43-3.97-5.26-1.85-.83-3.97.65-5.26.18-1.2-.55-3.88-2.12-8.12-2.59-4.25-.46-6.92-.74-8.86-1.39-1.94-.65-4.61-.37-6.37,1.75-1.75,2.12-1.11,5.44-.37,6.92s-.18,1.85-.09,2.77c.09.92.16,2.09-.21,2.83-.37.74.12,3.32.12,3.32-5.91-.98-10.33,3.44-10.33,3.44-2.95-4.55-5.04-7.88-12.92-10.7-7.88-2.83-10.33.86-11.2,4.3-.86,3.44,4.06,7.51,4.06,7.51-2.71,0-4.8,2.34-5.04,3.32s-1.23,4.55-1.23,4.55c-11.88-3.07-18.02,4.37-19.97,7.4-.68.04-1.48.11-2.38.22-14.16-7.94-26.24-4.23-32.28-2.45-6.27,1.85-9.11,5.91-11.93,7.75-2.83,1.85-9.97-1.72-12.92-4.06s-5.54-1.23-7.01-.62c-1.48.62-7.38,4.55-4.8,10.21,2.59,5.66,13.04,13.04,13.04,13.04l.13.06c-2.58,2.93-5.71,7.08-8.14,12.14-1.04,2.17-1.89,4.26-2.56,6.26-.28-.04-.57-.06-.85-.06-1.61,0-3.18.67-4.3,1.88-.66.71-6.53,7.33-9.31,20.33-.02.08-.03.16-.05.23-1.02.84-1.69,2.24-1.84,3.68-.11,1.13.36,2.03.74,2.56h-.1c-2.18.07-4.15,1.35-5.09,3.32-.19.39-4.54,9.6-4.15,22.96.06,2.07.19,4.22.47,6.37-.24.04-.47.09-.71.16-2.13.61-3.73,2.35-4.15,4.52-.09.47-2.21,11.66,1.24,24.49.61,2.28,1.29,4.35,2.03,6.22-.28.1-.55.23-.82.38-1.89,1.06-3.04,3.08-2.99,5.25,0,.48.35,11.82,7.21,23.46,1.04,1.76,2.23,3.66,3.63,5.52-.36.22-.71.48-1.03.78-1.6,1.53-2.2,3.83-1.56,5.95.08.26,1.8,5.84,6,12.44-.23,1.7.09,3.41.97,4.86,1.17,1.94,3.15,3.17,5.38,3.37.18.2.37.39.56.58,1.78,1.84,3.5,3.44,5.19,4.82-.41.37-.78.8-1.09,1.29-1.16,1.87-1.18,4.22-.06,6.11.27.46,6.79,11.23,18.61,18.02.17.1.34.2.51.29-.29,1.34-.62,3.22-.83,5.09-.42,3.85-.16,6.17.91,8.02,1.4,2.41,3.82,4.16,6.49,4.68.61.12,1.25.18,1.92.18,1.83,0,3.76-.45,5.46-1.09,3.97,2.53,9.25,5.31,15.25,6.96,2.75.76,5.27,1.29,7.61,1.61-.44.8-.7,1.71-.73,2.66-.06,2.23,1.14,4.3,3.11,5.35.49.26,12.1,6.37,25.64,6.5.25,0,.5,0,.74,0,6.74,0,12.04-.93,16.22-2.83.12-.05.23-.11.35-.17,1.12,1.14,2.64,1.77,4.2,1.77.77,0,1.55-.15,2.28-.47,2.94-1.24,4.75-2.21,7.76-3.15,6.01,2.67,13.27,4.34,19.93,4.34,3.15,0,14.94-1.66,16.06-2.77,4.25,2.04,10.15,3.3,17.11,3.3.25,0,.49,0,.74,0,13.53-.13,25.15-6.24,25.64-6.5,1.97-1.05,3.17-3.12,3.11-5.35-.03-.95-.29-1.86-.73-2.66,2.34-.32,4.86-.85,7.61-1.61,13.05-3.6,22.7-12.49,23.11-12.86,1.63-1.52,2.26-3.83,1.63-5.97-.24-.81-.64-1.53-1.17-2.15,1.93-.85,3.97-1.89,6.15-3.15,11.82-6.79,18.34-17.57,18.61-18.02,1.13-1.89,1.1-4.24-.06-6.11-.31-.49-.67-.92-1.09-1.29,1.69-1.38,3.42-2.98,5.19-4.82,9.3-9.64,12.75-20.79,12.9-21.26.64-2.12.04-4.42-1.56-5.95-.31-.3-.66-.56-1.03-.78,1.39-1.87,2.59-3.77,3.63-5.53,6.86-11.64,7.2-22.98,7.21-23.46.03-2.17-1.12-4.19-3.01-5.25h0Z"/></g><g id="g5"><path id="path4" class="cls-4" d="M157.43,276.14c-29.55,0-57.32-11.51-78.21-32.4-20.89-20.89-32.4-48.67-32.4-78.21s11.51-57.32,32.4-78.21c20.89-20.89,48.67-32.4,78.21-32.4s57.32,11.51,78.21,32.4c20.89,20.89,32.4,48.67,32.4,78.21s-11.51,57.32-32.4,78.21c-20.89,20.89-48.67,32.4-78.21,32.4Z"/><path id="path5" class="cls-3" d="M157.43,272.88c-28.67,0-55.63-11.17-75.9-31.44-20.27-20.27-31.44-47.23-31.44-75.9s11.17-55.63,31.44-75.9c20.27-20.27,47.23-31.44,75.9-31.44s55.63,11.17,75.9,31.44c20.27,20.27,31.44,47.23,31.44,75.9s-11.17,55.63-31.44,75.9c-20.27,20.27-47.23,31.44-75.9,31.44Z"/><circle id="circle5" class="cls-4" cx="157.43" cy="165.54" r="102.78"/></g><g id="g53"><g id="g29"><path id="path6" class="cls-4" d="M102.97,289.37s-8.92-5.54-17.96-7.44c-9.04-1.91-15.93-2.34-25.84-.62,0,0,8.86,8.24,20.67,11.51,11.81,3.26,18.77,1.97,23.13-3.45Z"/><path id="path7" class="cls-4" d="M135.44,299.46s-10.04-3.06-19.27-2.58c-9.23.48-16,1.83-25.13,6.04,0,0,10.68,5.69,22.93,5.81s18.64-2.92,21.47-9.27h0Z"/><path id="path8" class="cls-4" d="M74.12,271.79s-7.26-7.58-15.55-11.68-13.56-5.99-23.58-6.79c0,0,5.86,9.83,16.49,15.93s17.05,6.69,22.63,2.54Z"/><path id="path9" class="cls-4" d="M51.36,248.41s-5.1-9-12.06-15.08c-6.96-6.09-11.19-8.84-20.67-12.18,0,0,3.08,10.15,11.51,18.89,8.51,8.82,14.77,10.96,21.23,8.38h0Z"/><path id="path10" class="cls-4" d="M35.12,220.77s-2.53-9.94-7.88-17.47c-5.35-7.53-9.48-11.75-16.61-16.3,0,0,.23,10.15,6.4,20.61,6.22,10.56,11.87,14.03,18.09,13.17Z"/><path id="path11" class="cls-4" d="M26.23,190.76s-.1-10.21-3.38-18.85c-3.28-8.64-6.05-13.8-11.81-20,0,0-1.98,10.17,1.15,21.85,3.18,11.83,7.81,16.28,14.04,17h0Z"/><path id="path12" class="cls-4" d="M24.74,159.37s2.26-9.96,1.07-19.13-2.52-13.55-6.69-20.92c0,0-3.92,8.16-3.57,20.24.36,12.25,3.3,17.65,9.19,19.8Z"/><path id="path13" class="cls-4" d="M30.41,129.59s4.24-9.06,5.14-18.25.09-13.66-1.75-20.67c0,0-5.35,5.77-7.88,17.56-2.56,11.98-.77,17.94,4.49,21.36Z"/><path id="path14" class="cls-4" d="M41.82,103.16s5.96-7.31,8.93-16.07,3.35-13.67,3.14-20.92c0,0-7.02,5.83-11.38,14.95-4.8,10.03-5.03,17.52-.68,22.04Z"/><path id="path15" class="cls-4" d="M58.51,79.88s7.46-5.79,12.31-13.65,6.12-12.06,7.55-19.17c0,0-7.87,4.14-14.16,12.04-6.93,8.69-8.91,15.4-5.69,20.78Z"/><path id="path16" class="cls-4" d="M73.71,68.16s4.39-.45,8.78-3.09c.27-.16.55-.31.85-.41,2.42-.76,4.01-1.45,6.2-2.93,7.64-5.19,11.7-7.82,16.06-13.61,0,0-7.51-.34-16.61,4.06-8.22,3.98-13.57,9.33-15.27,15.99Z"/><path id="path17" class="cls-4" d="M61.52,82.78s5.87,2.26,15.93-2.18c8.46-3.73,12-6.83,14.77-10.06,0,0-4.28-2.8-14.12-.46-7.76,1.85-14.49,7.66-16.58,12.7Z"/><path id="path18" class="cls-4" d="M45.44,105.32s5.88,1.35,14.84-5.01c7.54-5.35,11.32-9.9,14.33-13.41,0,0-6.4-1.87-15.56,2.4-7.22,3.37-12.58,10.67-13.61,16.02h0Z"/><path id="path19" class="cls-4" d="M34.38,130.94s5.82.42,13.52-7.91c6.27-6.79,9.26-11.89,11.5-15.94,0,0-6.83-.63-14.94,5.4-6.39,4.76-10.15,13-10.08,18.45Z"/><path id="path20" class="cls-4" d="M29.42,159.9s6.78-1.65,12.06-11.69c4.3-8.18,6.43-13.8,7.72-18.24,0,0-7.1.73-13.67,8.42-5.18,6.06-7.39,16.22-6.11,21.51h0Z"/><path id="path21" class="cls-4" d="M31.33,190.23s5.55-2.49,8.8-13.35c2.65-8.86,3.64-16.98,3.88-21.59,0,0-7.75,4.06-12,13.66-3.22,7.29-3.14,16.43-.68,21.29Z"/><path id="path22" class="cls-4" d="M39.73,218.6s5.07-3.25,5.97-14.55c.74-9.21,0-16.72-.74-21.29,0,0-6.58,4.64-9.23,14.4-2.08,7.69.57,17.2,4,21.44Z"/><path id="path23" class="cls-4" d="M55.54,245.39s4.19-4.93,2.34-16.12c-1.5-9.12-4.34-16.66-6.15-20.92,0,0-5.17,5.78-5.41,17.11-.18,7.97,4.88,16.64,9.23,19.93h0Z"/><path id="path24" class="cls-4" d="M77.57,267.9s2.96-6.17-1.48-16.61c-3.62-8.5-8.06-15.49-10.83-19.19,0,0-4.03,7.4-1.6,18.45,1.71,7.78,8.9,15.19,13.9,17.35h0Z"/><path id="path25" class="cls-4" d="M105.04,284.53s1.41-8-5.69-16.76c-5.29-6.52-11.45-12.67-15.01-15.63,0,0-2.25,7.91,2.71,18.09,3.48,7.17,12.63,13.37,17.99,14.3h0Z"/><path id="path26" class="cls-4" d="M134.83,294.07s-.12-8.13-8.74-15.39c-6.42-5.41-13.63-10.3-17.68-12.53,0,0-.73,8.19,6.06,17.26,4.77,6.38,14.91,10.75,20.36,10.67h0Z"/><g id="g28"><path id="path27" class="cls-4" d="M70.29,71.36c-.12-.13-.25-.26-.38-.39-.06-.06-.13-.12-.19-.19.54-.47,1.08-.94,1.64-1.4.17-.14.41-.11.55.06h0c.13.17.1.41-.05.54-.52.46-1.05.92-1.57,1.38Z"/><path id="path28" class="cls-4" d="M63.74,76.53c1.8-1.85,3.63-3.65,5.55-5.37.07.07.14.14.21.21.12.12.25.24.36.36-4.56,4.12-8.72,8.71-12.6,13.48-23.01,28.21-33.75,64.2-28.47,100.34.35,1.95.87,6.02,1.35,7.93.27,1.3.84,3.95,1.11,5.24.51,1.87,1.21,4.61,1.72,6.47.22.76,1.81,5.55,2.05,6.38.41.99,1.97,5.33,2.39,6.25.32.76,1.3,2.9,1.62,3.68.32.7.75,1.76,1.11,2.44,14.22,29.96,41.03,52.8,71.62,64.95,7.46,3.02,15.25,4.87,23.1,6.5,2.49.51,5.38,1.02,7.89,1.36,3.52.52,7.07.78,10.7,1.24,7.1.88,14,2.87,20.77,5.17l1.14,2.82c-7.2-3.05-13.27-4.16-21.9-5.31-3.93-.5-8.47-.56-12.49-1.19-2.54-.41-5.52-1-8.03-1.52-3.99-.89-7.92-1.87-11.87-2.94-10.52-3.08-20.41-7.77-29.83-13.26-25.1-14.75-45.56-37.17-56.13-64.45l-1.9-5.09-1.63-5.18c-.49-1.47-1.02-3.72-1.43-5.24l-.68-2.63-.55-2.66c-.31-1.53-.82-3.82-1.04-5.33l-.82-5.37c-5.61-40.31,8.54-80.13,36.65-109.26h0Z"/></g></g><g id="g52"><path id="path29" class="cls-4" d="M210.24,289.41s8.92-5.54,17.96-7.44c9.04-1.91,15.93-2.34,25.84-.62,0,0-8.86,8.24-20.67,11.51-11.81,3.26-18.77,1.97-23.13-3.45Z"/><path id="path30" class="cls-4" d="M177.77,299.5s10.04-3.06,19.27-2.58c9.23.48,16,1.83,25.13,6.04,0,0-10.68,5.69-22.93,5.81-12.25.11-18.64-2.92-21.47-9.27h0Z"/><path id="path31" class="cls-4" d="M239.09,271.83s7.26-7.58,15.55-11.68c8.28-4.1,13.56-5.99,23.58-6.79,0,0-5.86,9.83-16.49,15.93-10.63,6.1-17.05,6.69-22.63,2.54h0Z"/><path id="path32" class="cls-4" d="M261.85,248.44s5.1-9,12.06-15.08c6.95-6.09,11.19-8.84,20.67-12.18,0,0-3.08,10.15-11.51,18.89-8.51,8.82-14.77,10.96-21.23,8.38h0Z"/><path id="path33" class="cls-4" d="M278.09,220.81s2.53-9.94,7.88-17.47c5.35-7.54,9.48-11.75,16.61-16.3,0,0-.23,10.15-6.4,20.61-6.22,10.56-11.87,14.03-18.09,13.17Z"/><path id="path34" class="cls-4" d="M286.97,190.8s.1-10.21,3.38-18.85c3.28-8.64,6.05-13.8,11.81-20,0,0,1.98,10.17-1.15,21.85-3.18,11.83-7.81,16.28-14.04,17h0Z"/><path id="path35" class="cls-4" d="M288.47,159.4s-2.26-9.96-1.07-19.13,2.52-13.55,6.69-20.92c0,0,3.92,8.16,3.57,20.24-.36,12.25-3.3,17.65-9.19,19.8Z"/><path id="path36" class="cls-4" d="M282.8,129.62s-4.24-9.06-5.14-18.25c-.9-9.2-.09-13.66,1.75-20.67,0,0,5.35,5.77,7.88,17.56,2.56,11.98.77,17.94-4.49,21.36Z"/><path id="path37" class="cls-4" d="M271.39,103.19s-5.96-7.31-8.93-16.07-3.35-13.67-3.14-20.92c0,0,7.02,5.83,11.38,14.95,4.8,10.03,5.03,17.52.68,22.04Z"/><path id="path38" class="cls-4" d="M254.7,79.91s-7.46-5.79-12.31-13.65-6.12-12.06-7.55-19.17c0,0,7.87,4.14,14.16,12.04,6.93,8.7,8.91,15.4,5.69,20.78Z"/><path id="path39" class="cls-4" d="M239.5,68.19s-4.39-.45-8.78-3.09c-.27-.16-.55-.31-.85-.41-2.42-.76-4.01-1.45-6.2-2.93-7.64-5.19-11.7-7.82-16.06-13.61,0,0,7.51-.34,16.61,4.06,8.22,3.98,13.57,9.33,15.27,15.99h0Z"/><path id="path40" class="cls-4" d="M251.69,82.81s-5.87,2.26-15.93-2.18c-8.46-3.73-12-6.83-14.77-10.06,0,0,4.28-2.8,14.12-.46,7.76,1.85,14.49,7.66,16.58,12.7Z"/><path id="path41" class="cls-4" d="M267.77,105.35s-5.88,1.35-14.84-5.01c-7.54-5.35-11.32-9.9-14.33-13.41,0,0,6.4-1.87,15.56,2.4,7.22,3.37,12.58,10.67,13.61,16.02h0Z"/><path id="path42" class="cls-4" d="M278.83,130.97s-5.82.42-13.52-7.91c-6.27-6.79-9.26-11.89-11.5-15.94,0,0,6.83-.63,14.94,5.4,6.39,4.76,10.15,13,10.08,18.45Z"/><path id="path43" class="cls-4" d="M283.78,159.93s-6.78-1.65-12.06-11.69c-4.3-8.18-6.43-13.8-7.72-18.24,0,0,7.1.73,13.67,8.42,5.18,6.06,7.4,16.22,6.11,21.51h0Z"/><path id="path44" class="cls-4" d="M281.88,190.26s-5.55-2.49-8.8-13.35c-2.65-8.86-3.64-16.98-3.88-21.59,0,0,7.75,4.06,12,13.66,3.22,7.29,3.14,16.43.68,21.29Z"/><path id="path45" class="cls-4" d="M273.48,218.63s-5.07-3.25-5.97-14.55c-.74-9.21,0-16.72.74-21.29,0,0,6.58,4.64,9.23,14.4,2.08,7.69-.57,17.21-4,21.44h0Z"/><path id="path46" class="cls-4" d="M257.67,245.42s-4.19-4.93-2.34-16.12c1.5-9.12,4.34-16.66,6.15-20.92,0,0,5.17,5.78,5.41,17.11.18,7.97-4.88,16.64-9.23,19.93h0Z"/><path id="path47" class="cls-4" d="M235.64,267.93s-2.96-6.17,1.48-16.61c3.62-8.5,8.06-15.49,10.83-19.19,0,0,4.03,7.4,1.6,18.45-1.71,7.79-8.9,15.19-13.9,17.35Z"/><path id="path48" class="cls-4" d="M208.17,284.57s-1.41-8,5.69-16.76c5.29-6.52,11.45-12.67,15.01-15.63,0,0,2.25,7.91-2.71,18.09-3.48,7.16-12.63,13.37-17.99,14.3h0Z"/><path id="path49" class="cls-4" d="M177.77,294.63s-.08-8.13,8.35-15.6c6.28-5.57,13.37-10.63,17.37-12.96,0,0,.93,8.17-5.63,17.4-4.61,6.5-14.64,11.12-20.09,11.17Z"/><g id="g51"><path id="path50" class="cls-4" d="M242.92,71.39c.12-.13.25-.26.38-.39.06-.06.13-.12.19-.19-.54-.47-1.08-.94-1.64-1.4-.17-.14-.41-.11-.55.06h0c-.13.17-.1.41.05.54.52.46,1.04.92,1.57,1.38h0Z"/><path id="path51" class="cls-4" d="M249.47,76.56c-1.8-1.85-3.63-3.65-5.55-5.37-.07.07-.14.14-.21.21-.12.12-.25.24-.36.36,4.56,4.12,8.72,8.71,12.6,13.48,23.01,28.21,33.75,64.2,28.47,100.34-.35,1.95-.87,6.02-1.35,7.93-.27,1.3-.84,3.95-1.11,5.24-.51,1.87-1.21,4.61-1.72,6.47-.22.76-1.81,5.55-2.05,6.38-.41.99-1.97,5.33-2.39,6.25-.32.76-1.3,2.9-1.62,3.68-.32.7-.75,1.76-1.11,2.44-14.22,29.96-41.03,52.8-71.62,64.95-7.46,3.02-15.25,4.87-23.1,6.5-2.49.51-5.38,1.02-7.89,1.36-3.52.52-7.07.78-10.7,1.24-7.1.88-14,2.87-20.77,5.17l-3.56,4.34c7.2-3.05,15.69-5.68,24.31-6.83,3.93-.5,8.47-.56,12.49-1.19,2.54-.41,5.52-1,8.03-1.52,3.99-.89,7.92-1.87,11.87-2.94,10.52-3.08,20.41-7.77,29.83-13.26,25.1-14.75,45.56-37.17,56.13-64.45l1.9-5.09,1.63-5.18c.49-1.47,1.02-3.72,1.43-5.24l.68-2.63.55-2.66c.31-1.53.82-3.82,1.04-5.33l.82-5.37c5.62-40.31-8.54-80.12-36.64-109.25h0Z"/></g></g></g></g><g id="g65"><path id="path54" class="cls-4" d="M285.82,162.24c-.42-1.92-1.17-4.61-1.78-5.35-1.87-2.24-3.15-3.31-6.35-3.27-.56,0-1.72.02-2.26.16l-1.98.36c.02-.17.03-.5.04-.67.16-2.72.36-4.83.46-5.77l9.54-15.64c.26-.42-.12-.97-.59-.84-13.12,3.6-85.31,17.22-99.5,21.51-113.26,34.21-161.43,51.74-161.43,51.74,0,0,13.87.31,20.33,3.81-9.13,15.69-10.88,15-17.16,26.95-.92,1.75.36,2.99,1.6,2.27,10.31-5.96,31.07-18.42,40.2-22.94,1.04-.52,2.6-1.21,4.57-2.11l-16.52,62.72c-.59,2.46-1.55,8.27-.74,9.67.51.88,1.46,1.65,2.54,1.86,1.87.36,5.03-.77,6.53-1.84l17.05-12.48c3.05-2.72,2.24-3.27,3.64-3.67.95-.26,3.04-.61,3.85-1.15l16.47-12.07c.84-.56,1.9-1.6,2.46-2.42.93-.14,1.88-.2,2.68-.72,0,0,21.26-13.24,22.31-13.9l40.39-23.15c1.37-.73,2.49-1.31,3.1-2.47.28-.53.83-.88,1.43-.95,1.58-.21,4.43-.25,5.26-.51,2.64-.83,5.65-2.13,8.74-4.77,1.11-.94,1.31-1.08,2.38-2.49.27-.36.68-.59,1.13-.63,4.15-.41,3.99-.64,5.39-1.06,1.81-.55,6.44-3.13,8.28-4.06.91-.46,12.79-5.29,12.79-5.29.68-.28,3.65-1.28,4.41-1.56,1.75-.65,4.97-1.87,6.83-2.71,1.13-.52,1.95-.95,2.54-1.68.52-.64,1.32-.96,2.13-.84,1.26.19,2.72-.11,4.09-.44.22-.05.58-.16.79-.24,0,0,16.54-5.67,17.54-6.02.94-.32,1.66-.71,2.31-1.24.82-.67,1.87-.98,2.92-.91.92.07,1.7.13,2.58.13,1.74,0,3.51-.5,4.99-1.23,1.09-.55,2.07-1.23,2.95-2.02.33.05.67.08,1.02.08s.71-.03,1.06-.08c3.11-.5,6.66-1.79,8.14-3.97,1.45-2.16,1.51-5.1.85-8.08h0Z"/><g id="g64"><path id="path55" class="cls-3" d="M62.73,275.59l14.99-62.52c.17-.72.65-1.33,1.3-1.66l11.79-6.06c.41-.21.92.04,1,.49l3.25,17.78c.02.1.16.1.18,0l3.99-21.82c.1-.58.5-1.08,1.04-1.32l9.93-4.41c.36-.16.76.14.7.53-.58,4.01-2.94,20.28-3.74,25.13-.87,5.22-4.36,22.57-5.23,27.17-.08.45-.34.84-.72,1.09l-13.83,9.28c-.32.22-.77.02-.81-.37-.39-3.38-1.84-15.9-2.55-19.91-.03-.15-.24-.15-.27,0l-6.13,27.04-14.14,10.08c-.36.26-.85-.07-.75-.51Z"/><path id="path56" class="cls-3" d="M128.49,233.16l12.25-7.65c-1.46-13.58-4.52-37.98-4.94-41.25-.02-.18-.22-.29-.39-.21l-13.29,5.95c-.25.11-.42.34-.47.61-.94,6.07-3.93,15.88-6.33,24.05-2.14,7.28-8.38,26.75-9.96,31.69-.12.39.31.72.65.49l12.8-8.31c.26-.16.43-.42.51-.71l1.68-6.71,6.79-5.1.09,6.82c.01.31.36.5.62.33h0ZM124.71,216.32l2.38-9.51c.07-.26.46-.22.46.05l.1,7.74c0,.19-.09.37-.25.47l-2.32,1.5c-.18.12-.42-.05-.36-.26h0Z"/><path id="path57" class="cls-3" d="M171.36,170.17c.2,3.66,1.28,25-.25,38.37-.01.13-.1.25-.21.31l-9.84,5.21c-.22.12-.5,0-.58-.23-.69-2.04-3.53-10.42-4.92-14.06-.09-.22-.41-.18-.44.06l-1.97,18.43c-.01.13-.09.25-.2.31l-8.97,5.25c-.29.17-.64-.05-.62-.38.39-5.09,2.56-33.79,2.7-43.58,0-.16.1-.31.25-.37l9.62-4.14c.18-.08.39,0,.46.2.63,1.65,3.46,9.02,5.45,14.07.12.31.58.21.57-.11l-.3-16.39c0-.18.11-.34.27-.4l8.44-2.92c.25-.1.52.08.54.36h0Z"/><path id="path58" class="cls-3" d="M192.64,168.6l-1.8,6.98c-.1.39-.54.57-.88.36-.63-.39-1.6-.89-2.46-.96-1.41-.12-2.34.8-2.4,1.6-.06.8.55,1.54,4.06,1.78s6.95,4,4,13.48c-2.95,9.48-9.54,12.55-11.69,12.55s-5.52-.81-7.4-3.75c-.19-.3-.23-.67-.11-.99.58-1.6,2.4-6.61,3.21-8.56.15-.35.55-.51.88-.35.67.32,1.86.75,3.16.67,2.03-.12,4.8-2.66,2.59-3.2-2.52-.62-3.63-.06-5.91-1.54-2.28-1.48-3.44-6.34-2.09-11.81,1.63-6.61,5.48-10.95,8.12-11.32,2.48-.35,5.6.33,8.36,3.55.36.41.48.98.34,1.51h0Z"/><path id="path59" class="cls-3" d="M214.4,155.43c-.04-.21-.25-.34-.46-.29-1.24.34-5.18,1.43-6.72,2.07-.27.11-.42.41-.36.69.3,1.33,1.18,5.41,1.98,11.18-1.53.65-3.27,1.29-4.79,1.81-.41-4.01-.93-8.14-1.58-11.97-.04-.24-.28-.39-.52-.31-1.31.4-5.25,1.61-6.87,2.3-.34.14-.53.49-.48.85.44,3.07,2.44,17.93,2.5,33.84,0,.34.34.57.66.44,1.57-.65,5.55-2.31,7.26-3.18.28-.14.45-.43.44-.75-.05-1.51-.21-6.25-.64-12.25,1.61-.62,3.47-1.27,5.03-1.87.31,3.68.52,7.69.55,11.88,0,.34.35.57.66.44l7.23-3.01c.18-.07.29-.25.27-.44-.23-2.52-1.82-19.36-4.15-31.44h0Z"/><path id="path60" class="cls-3" d="M217.5,154.38c.41,1.74,2.1,9.7,4.61,30.79.05.38.44.63.8.49,1.44-.53,4.69-1.76,6.42-2.55.24-.11.37-.36.34-.62-.51-3.43-3.88-26.2-4.51-30.12-.04-.22-.25-.36-.47-.3l-6.9,1.82c-.21.05-.35.27-.3.49h0Z"/><path id="path61" class="cls-3" d="M248.77,166.07c-.53-2.22-1.3-4.94-1.62-6.04-.08-.26-.35-.41-.61-.33-.88.28-2.59.7-4.56,1.21l-.64-2.95s2.4-.28,6.37-1.75l-2.05-8.78c-.09-.4-.49-.64-.88-.54l-11.55,2.85c-.45.11-.73.57-.61,1.02.56,2.13,2.23,9.12,5.81,28.44.08.43.53.69.94.54l5.64-2.07c.34-.12.53-.48.46-.83l-1.83-8.39c1.92-.57,3.66-1.1,4.6-1.39.41-.14.66-.56.56-.98h0Z"/><path id="path62" class="cls-3" d="M250.45,166.41l4.4-1.35c.31-.09.62.09.68.41.25,1.18.87,4.05,1.83,7.51.08.3-.08.61-.37.7-.9.31-2.79.95-4.11,1.36-.33.1-.69-.08-.79-.41-.43-1.37-1.48-4.82-2-7.62-.05-.26.11-.52.36-.59h0Z"/><path id="path63" class="cls-3" d="M267.79,146.83c-.1.98-.32,3.24-.51,6.24-.02.38-.46.6-.78.38-.76-.53-1.95-1.23-2.66-.99-1.11.37-2.59,1.78-1.54,5.48.99,3.49,3.85,4.23,5.72,1.12.16-.26.52-.28.7-.05l3.84,5.12c.14.19.21.41.2.64-.05,1.13-.49,4.36-3.75,5.98-3.94,1.97-11.51-2.54-13.35-11.28-1.85-8.74.62-15.96,5.17-16.45,3.55-.38,5.83,1.82,6.66,2.82.24.27.34.63.31.99h0Z"/><path id="path64" class="cls-3" d="M273.71,160.28l3.14-.77c.38-.09.77.11.9.48.29.79.78,2.23,1.14,3.88.53,2.37-.2,3.82-3.05,4.28-.26.04-.51-.11-.59-.36l-2.05-6.62c-.12-.38.11-.79.5-.88Z"/></g><path id="path65" class="cls-3" d="M45.72,217.72s-.05,0-.06-.02c-.04-.02-.06-.05-.06-.1l-2.1-14.79c0-.06.03-.12.09-.15l8.94-3.02s.03,0,.04,0c.02,0,.05,0,.07.02.03.02.05.05.06.09l.34,2.06c0,.06-.03.12-.09.15l-6.29,2.23.52,3.45,5.42-2.04s.03,0,.05,0c.02,0,.05,0,.06.02.04.02.06.05.06.09l.35,2.13c0,.06-.03.12-.08.15l-5.49,2.16.94,6.3c0,.06-.02.11-.08.14l-2.62,1.14s-.03.01-.05.01h0ZM59.78,211.29c-.78,0-1.51-.21-2.17-.62-1.3-.82-2.15-2.37-2.52-4.59-.24-1.4-.25-2.67-.03-3.75.16-.79.44-1.55.83-2.26.38-.7.83-1.29,1.35-1.73.67-.59,1.48-1.05,2.42-1.37.67-.22,1.3-.34,1.9-.34.88,0,1.67.25,2.38.73,1.17.81,1.97,2.26,2.36,4.32.4,2.07.24,3.91-.48,5.49-.74,1.63-1.96,2.82-3.63,3.55-.85.37-1.66.56-2.4.56ZM61.13,199c-.33,0-.68.06-1.04.2-.98.34-1.68.99-2.15,1.97-.47.98-.57,2.27-.31,3.83.27,1.55.79,2.61,1.56,3.16.44.31.92.47,1.42.47h0c.36,0,.75-.09,1.14-.25.93-.39,1.6-1.08,2.04-2.11.43-1,.5-2.27.22-3.77-.28-1.47-.77-2.49-1.46-3.01-.43-.32-.91-.48-1.42-.48h0ZM71.33,206.42c-.46,0-.88-.1-1.25-.3-.78-.41-1.38-1.21-1.8-2.38-.07-.21,0-.43.2-.54l1.25-.67c.06-.03.13-.05.2-.05.05,0,.09,0,.14.02.11.04.21.12.26.23.26.54.57.91.93,1.1.21.11.45.17.7.17.27,0,.57-.07.89-.2.64-.27,1.09-.64,1.34-1.11.25-.47.32-.92.23-1.38-.06-.29-.18-.5-.36-.65-.18-.15-.45-.23-.82-.25h-.1c-.28,0-.82.03-1.61.1-.27.02-.52.03-.76.03-.79,0-1.38-.12-1.81-.36-.77-.45-1.26-1.17-1.45-2.15-.12-.63-.09-1.28.1-1.93.19-.64.54-1.21,1.03-1.68.49-.46,1.12-.83,1.88-1.08.58-.2,1.13-.3,1.61-.3.51,0,.96.11,1.34.34.64.38,1.1,1,1.38,1.85.07.22-.04.46-.24.54l-1.14.48c-.05.02-.11.03-.16.03-.16,0-.32-.1-.4-.25-.18-.36-.4-.61-.65-.74-.16-.08-.33-.12-.54-.12-.23,0-.5.05-.8.16-.58.21-1.01.52-1.29.93-.18.26-.23.56-.17.87.06.29.21.5.46.63.21.11.57.17,1.12.17.26,0,.57-.01.9-.04.4-.03.76-.05,1.07-.05.5,0,.91.04,1.22.11.51.12.95.4,1.3.81.36.41.62,1,.78,1.75.15.68.14,1.4-.03,2.13-.17.73-.51,1.38-.99,1.92-.5.54-1.18,1.01-2.03,1.38-.71.31-1.35.46-1.93.46h0ZM78.69,203.3s-.07,0-.1-.03c-.06-.03-.1-.09-.12-.16l-2.4-11.22c-.02-.11.04-.23.15-.27l1.42-.48s.05-.01.07-.01c.04,0,.08,0,.11.03.06.03.1.09.11.15l.92,4.21,3.5-1.3-.93-4.13c-.03-.11.04-.23.15-.27l1.27-.43s.05-.01.07-.01c.04,0,.08,0,.11.03.06.03.1.09.11.15l2.44,10.57c.03.11-.03.22-.13.26l-1.29.56s-.06.02-.09.02c-.04,0-.07,0-.1-.03-.06-.03-.1-.09-.12-.16l-1.06-4.68-3.51,1.36,1.07,4.92c.02.11-.03.22-.13.26l-1.44.62s-.06.04-.09.04h0ZM86.65,199.88c-.05,0-.1-.01-.15-.05-.08-.05-.12-.13-.11-.22l.41-11.33c0-.1.08-.21.18-.24l1.24-.42s.05-.01.08-.01c.09,0,.18.05.23.13l5.26,8.73c.04.06.05.14.03.21s-.08.13-.15.16l-1.09.47s-.07.02-.1.02c-.09,0-.18-.05-.23-.13l-1.04-1.66-3,1.24-.14,2.31c0,.12-.06.21-.16.25l-1.16.51s-.07.02-.1.02h0ZM88.19,191.44l.09,3.63,2.02-.8-1.49-2.99-.62.16ZM94.65,196.37s-.05,0-.06-.01c-.04-.02-.06-.05-.08-.1l-2.48-9.8c-.02-.07.02-.15.09-.17l1.23-.42s.03,0,.05,0c.04,0,.08.02.11.05l3.61,4.26.57-.29-1.29-4.9c-.02-.07.02-.15.09-.17l1.02-.35s.03,0,.05,0c.02,0,.05,0,.07.02.04.02.06.05.07.09l2.48,9.31c.02.07-.02.14-.08.17l-1.18.51s-.04.01-.06.01c-.04,0-.08-.02-.11-.05l-3.57-4.16-.57.29,1.3,5.08c.02.07-.01.14-.08.17l-1.12.48s-.03.01-.05.01h0Z"/></g><g id="g122"><path id="path66" class="cls-4" d="M37.11,50.46s1.75-1.94,2.95-2.68c0,0,4.06,3.69,8.12,4.98,4.06,1.29,6.83,1.66,9.69.92s6-3.78,6.83-4.89,9.87-6,18.27-5.35c8.4.65,10.52,1.2,17.44,5.08l5.54-.46s-.28,1.2-2.31,2.68c0,0,1.94,3.23,2.86,4.71l2.17-.88s-2.44-5.26-.51-8.81,5.91-6.09,10.38-6c4.47.09,6.97,2.03,7.52,2.59.55.55,3.51.92,3.51.92,0,0-1.89-5.68.41-10.52,0,0,1.34,3.27,3,5.54,0,0,.23-3.42.92-5.26.69-1.85,2.17-3.97,1.98-6.14s-1.86-5.15-5.12-6.81c0,0,5.35-.31,9.17,3.01,3.81,3.32,4.49,4.92,5.54,6.95s2.09,6.4,3.81,7.75c0,0,2.64-9.48,9.29-9.97,0,0-.12,1.72-.8,2.89s-.49,7.07,2.77,9.41c0,0,.31-2.15.8-2.77s2.09-2.09,2.71-6.27c0,0,1.83-.18,2.52.09,0,0-.74-.97-1.98-1.52-.78-.41.69-2.07,1.06-2.9s.83-3.97-.09-6.69c0,0,.55-.32,1.48-.28,0,0-1.06-2.7-1.18-3.74,0,0,3.9.28,5.24.88,0,0-4.52-5.12-6.04-6.6,0,0,2.59.78,5.31,1.15s5.72.32,7.62.88c1.89.55,5.86,2.72,7.66,5.4,0,0,1.2-3.18,1.85-3.97,0,0,.37,2.72,3.51,8.12s4.66,6.41,6.23,9.04c1.57,2.63,3.29,6.6,3.29,9.46s0,2.8.43,2.98,1.11.58.8,1.23c-.31.65-.97,2.2-1.2,3.12,0,0,2.81-1.2,4.15-2.77,1.34-1.57,2.31-4.15,2.59-5.72.18-.88,1.34.23,1.61.78s.46,3.18.41,4.43c0,0,5.58-4.01,7.25-3.64s2.35,1.57,1.11,2.54c-1.24.97-5.81,8.35-5.03,19.7,0,0,3.88-1.34,6.27-1.15s2.81.41,3.18,1.24c.37.83-1.06,2.86-1.2,3.23s.05,6.32.14,7.52.37.86,1.23,1.6,6.15,7.69,7.32,14.83c.25,1.04,2.03,3.14,2.64,4.8.62,1.66,1.72,5.11,1.97,7.93.25,2.83,2.59,2.95,3.69,7.14,1.11,4.18.62,6.89.62,6.89,0,0,2.22-.98,2.83-2.83,0,0,6.4,12.18-1.23,20.3,0,0,.25,0-.86,3.2s-2.83,5.66-5.54,6.52c-2.71.86-3.2,1.11-3.2,2.34s-.71,14.53-2.6,14.99-3.64-.28-5.08-2.59c-1.43-2.31-3.69-6.04-4.47-7.25-.78-1.2-4.46-1.6-4.46-1.6l.12,2.46s-6.03,2.83-10.95.62c-4.92-2.22-9.72-4.55-9.72-4.55,0,0-4.06,5.41-10.58,4.06,0,0-4.06,7.26-10.58,8.24,0,0-2.22,5.29-7.75,6.03l-.49-2.22s-2.83,3.32-6.4,4.3l-.86-2.83s-.98,3.57-3.81,5.54c0,0-.62.49-.86,3.81s.74,7.01,1.23,10.7c.49,3.69.62,6.89-.74,7.63-1.35.74-9.72-3.08-16.24-7.51,0,0-2.83,3.08-3.63,3.2s-3.2-.18-5.11-.8c-1.91-.62-3.44.43-5.91,1.66-2.46,1.23-9.29-2.59-11.23-4.06,0,0-6,1.02-9.32.92-3.32-.09-9.04-1.66-12.37-2.68,0,0-6.83,3.6-11.35,4.61-4.52,1.02-11.17,3.78-17.53-6.64,0,0,5.54-2.4,8.4-3.88,0,0-8.76-6.92-10.52-14.03,0,0,4.25.92,6.55.83,0,0-2.4-4.71-2.95-7.75,0,0-4.15-5.35-3.32-12.92,0,0-7.2-9.78-1.85-20.39l5.17,8.95s3.32-8.95,4.61-11.07l1.66,1.48s.74-6.64,1.29-9.23c.55-2.59,3.14-1.29,3.14-1.29,0,0,.46-3.88.28-5.81s-1.57-4.61-1.94-6.09l-1.66-.37s-4.71-4.15-6.37-8.4c-1.66-4.25-4.8-11.26-5.91-14.4-1.11-3.14-3.97-6.64-4.34-6.83,0,0,4.89.46,6.18,2.49,0,0,.37-3.14,2.4-3.14,0,0-7.2-5.17-8.86-8.03-.01.03-8.32-2.46-14.69-12.33h0Z"/><g id="g121"><path id="path67" class="cls-2" d="M142.85,147.82c-.73,4.15-3.19,12.24-11.15,12.36-.03,0-.05-.03-.03-.05.59-.8,7.16-9.69,7.61-13.13-.22.51-8.46,19.07-21.17,14.04-.02,0-.03-.04-.02-.05.21-.29,1.55-2.21,1.63-5.03,0-.04-.07-.06-.07-.02-.21,1.28-2.5,7.21-9.68,5.39-.25-.06-.31-.3-.08-.37,1.1-.34,5.31-1.24,7.53-4.83,0,0-3.51,4.06-10.06,3.88-6.37-.18-10.83-3.24-11.74-4.09-.03-.02,0-.06.03-.06.67.02,4.67.1,5.3-.28.69-.41,2.95-1.01,3.97-1.2.99-.18,3.96-1.86,4.44-3.18.01-.03-.03-.06-.05-.04-.7.41-5.57,3.04-9.95,1.08-.03,0-.03-.05,0-.06.47-.31,3.8-2.61,4.22-4.9,0-.03-.03-.06-.06-.04-.57.41-4.31,3.03-6.57,3.5-2.44.51-9.11-4.54-12.57-12.27-.01-.03,0-.05.03-.05.72.03,8.11.25,8.52-2.07,0-.03-.02-.05-.04-.04-.67.12-7.75,1.34-9.59-.38-1.93-1.79-3.22-4.13-4.51-8.07,0-.02,0-.05.04-.05.73.05,8.66.65,11.63-.6.04-.01.03-.06,0-.07-1.56-.19-15.83-2.22-15.98-14.8,0-.29.36-.44.56-.23,1.65,1.74,6.83,6.71,12.85,7.66.05,0,.06-.06.02-.07-1.54-.59-8.02-3.3-11.12-7.89-.05-.08.04-.19.13-.14,1.76.99,9.78,5.36,13.9,5.25.04,0,.05-.06,0-.07-1.62-.6-13.96-5.42-18.38-14.03-.2-.39.09-.84.52-.84,1.66.03,5.08.11,6.16.21,0,0,.02,0,.03.01.21.3,3.83,5.25,11.47,7.06.04.01.07-.05.03-.07-1.2-.59-5.79-2.92-8.66-5.39-3.27-2.81,3.3-3.13,16.62-3.58.25,0,.39.27.24.47-1.75,2.25-8.47,12.18-4.03,27.2,5.08,17.16,16.98,25.56,27.96,24.92,10.94-.65,18.87-9.45,18.73-12.7,0-.01.02-.02.03-.04l1.84-.34c.11-.02.21.1.16.2-.64,1.32-1.25,2.93-1.25,4.47,0,1.21.2,2.36.57,3.43h0Z"/><path id="path68" class="cls-2" d="M145.64,152c-.92,1.46-2.07,2.74-3.52,3.61-.03.02-.06-.01-.05-.05.14-.53.85-3.32,1.05-7.07.58,1.35,1.45,2.55,2.53,3.5Z"/><path id="path69" class="cls-2" d="M239.58,128.2c-.88,1.66-2.13,3.14-2.49,3.69-.28.43-1.71,3.12-7.41,4.42-.35.08-.26.61.1.56,1.68-.24,3.6-.66,5.65-1.38.19-.06.4.09.37.29-.11,1.16-.55,4.29-2.28,4.78-1.7.48-6.89,1.14-11.95-.06-.35-.08-.5.42-.16.54,1.61.57,3.82,1.14,6.78,1.47.2.02.31.23.22.41-.63,1.29-2.9,5.57-5.41,6-2.77.47-9.75,1.92-16.28-5.41-.22-.25-.62.02-.47.31.88,1.65,2.57,4.2,5.67,7,.18.16.08.47-.17.49-2.28.17-10.09.21-15.53-6.5-.22-.27-.64.02-.47.32.55.93,1.36,2.04,2.55,3.2.19.18.05.5-.21.49-1.46-.1-4.99-.91-9.45-6.05-.22-.26-.62.03-.46.32.73,1.3,1.8,2.92,3.15,4.16.13.11.13.31,0,.42-.85.69-3.85,2.77-8.23,2.05-.13-.02-.23-.13-.24-.26-.05-.9-.36-4.33-1.82-6.67-.16-.26-.57-.11-.52.19.45,2.95.8,10.73-6.87,14.93-.22.12-.48-.08-.41-.32.44-1.52,1.34-5.42,0-8.46-.12-.28-.54-.2-.54.11,0,3.21-.6,12.24-7.11,14.98-.2.08-.41-.06-.4-.28.07-1.09.21-4.01.02-6.56-.03-.35-.53-.35-.57,0-.3,3.1-1.56,7.54-6.24,8.82-.19.05-.36-.1-.35-.3.08-1.12.26-4.43-.1-7.3-.04-.34-.53-.34-.57,0-.31,2.94-1.33,8.04-4.67,10.66-.19.15-.47,0-.46-.24.04-1.12.12-3.67.05-6.03,0-.36-.54-.37-.57-.01-.26,3.66-.88,8.98-2.34,12.17-1.41,3.26-.8,4.49-4.49,6.64-3.16,1.84-5.55,2.2-6.75,2.23-.22,0-.36-.24-.25-.43.9-1.53,3.94-7.09,4.73-13.67,0,0-2.22,8.3-4.68,11.13-2.46,2.83-5.84,5.66-7.07,5.85-1.2.18-10.55.02-14.82-3.09-.16-.12-.16-.37.02-.47,1.76-.99,8.33-4.59,10.06-7.88,0,0-9.23,10.69-26.96,9.78-.33-.02-.35-.5-.03-.56,3.05-.61,9.02-1.52,16.45-5.03.33-.16.11-.65-.23-.52-5.3,2.05-14.25,4.75-22.06,3.44-.29-.05-.32-.47-.04-.55,2.59-.83,9.31-3.24,14.57-7.28.28-.21,0-.65-.31-.47-3.96,2.18-11.66,5.97-17.8,6.36-8.68.56-11.69.56-14.09-.8-2.29-1.29-9.23-7.23-12.43-11.51-.16-.21.03-.5.29-.44,2.03.44,7.91,1.63,11.9,1.49.35-.01.38-.52.03-.57-2.23-.28-5.36-.73-5.76-1.09-.58-.53-3.63-3.06-4.45-7.24-.05-.25.21-.43.43-.31,1,.61,3.31,1.88,5.91,2.43.33.07.49-.39.18-.53-1.7-.78-4.2-2-5.39-2.85-1.84-1.31-7.02-4.76-6.57-11.45.02-.26.34-.36.5-.16,1.23,1.48,4.92,5.64,9.27,7.87.31.16.58-.26.31-.47-2.54-1.98-7.08-5.81-9.6-9.56-3.42-5.1-4.22-10.34-3.84-15.16.02-.27.38-.36.52-.13.93,1.52,3.34,5.07,7.06,8.05,4.89,3.91,10.27,6.03,11.91,7.34,1.61,1.29,3.16,2.88,10.38,13.34.14.2-.02.47-.26.44-1.12-.13-3.55-.38-5.87-.29-.34.01-.37.51-.04.56,3.21.52,9.01,1.64,11.91,3.22.23.12.18.47-.07.52-1.29.31-4.21,1.1-6.91,2.51-.31.16-.11.62.21.52,2.48-.77,6.38-1.77,9.32-1.54,4.66.37,12.32,3.09,14.86,4.06,2.54.97,9.26,2.5,15.9,1.71s12.74-3.38,17.11-6.15c4.37-2.77,9.43-6.58,9.54-8.3.04-.61.07-1.16.1-1.66h.02c5.44,0,9.86-4.52,9.86-10.1,0-.57-.17-1.25-.35-1.87-.1-.36.21-.72.58-.64.02,0,.03,0,.05,0,2.02.16,6.92.18,10.37-3.05.09-.09.22-.1.33-.05.77.44,4,2.05,8.18.68,4.53-1.48,6.26-3.66,7.96-5.65.14-.16.4-.12.47.07.66,1.54,3.21,6.66,8.04,6.58,5.5-.09,7.27-3.95,8.09-5.65.05-.1.14-.16.25-.16,1.03-.03,6.48-.39,11.13-4.38,5.17-4.43,6.83-8.03,6.55-17.72-.02-.85.32-.56.65-1.71.32-1.15.32-1.61,1.52-1.71,1.17-.09,4.26-.4,7.62-2.46.15-.09.34-.03.41.12.7,1.63,3.69,9.65-2.64,15.13-.26.22.02.62.31.47,1-.53,2.29-1.4,3.73-2.79.2-.2.53-.02.47.26-.21.98-.97,2.75-3.68,4.69-.28.2-.03.63.28.49,2.13-1.01,5.29-3.45,7.84-6.86.16-.22.52-.1.51.17-.02.96-.02,2.44.07,3.24.15,1.24-.25,4.95-1.13,6.61h0Z"/><path id="path70" class="cls-2" d="M97.14,89c1.34,1.4,5.6,5.92,7.58,8.87.23.35-.06.81-.48.73-1.88-.36-5.85-1.01-8.45-.8-3.51.28-8.3,1.11-12.09,2.22s-12.37,1.11-16.24-3.69c-3.67-4.55-4.61-7.68-5.8-12.39-.1-.38.23-.73.61-.67,2.02.33,7.31,1.14,9.53,1.07,2.77-.09,8.76-2.12,11.81-1.94,2.99.18,6.59.63,9.78,2.56.05.03.11-.02.08-.08-.47-.8-2.7-4.03-9.46-7.45-.21-.11-.19-.42.04-.49,2.35-.73,10.7-3.12,14.88-2.02,4.87,1.29,6.54,1.84,14.75,10.95.04.04.1.02.1-.04-.06-.93-.72-5.81-7.91-12.47-.04-.04-.02-.1.04-.1.84,0,5,.08,6.4.83,1.56.82,6,5.71,10.03,12.62.03.05.11.03.11-.03-.07-1.14-.47-6.15-2.05-10.66-.02-.05.04-.1.09-.07.65.47,3.27,2.33,4.56,3.21,1.48,1.02,3.6,1.2,5.81,5.91,2.2,4.67,2.85,10.71,2.68,15.85,0,.05.05.08.1.05.47-.37,2.49-2.59,2.03-13.08,0-.05.06-.08.1-.05.83.76,6.51,6.21,6.08,13.57-.43,7.41-2.23,16.52-2.47,17.68,0,.05.05.09.09.06.61-.39,3.59-2.88,6.22-15.1,0-.05.08-.07.11-.02.46.85,2.89,5.58,2.97,10.84.09,5.73-1.97,9.66-7.41,13.93-.05.04-.01.12.05.1,1.17-.39,5.64-2.27,10.66-9.34.03-.05.11-.02.1.03-.09,1.45-.75,10.38-3.03,14.1-2.46,4.01-7,6.4-10.31,4.77-.05-.02-.05-.09,0-.11.33-.14,1.25-.56,1.61-1.23.02-.04-.02-.1-.06-.08-.68.16-4.12.78-5.66-1.87-1.72-2.95-2.83-5.91-3.01-8.61-.18-2.64-1.24-11.99-4.04-17.47-.03-.06-.12-.03-.11.04.31,1.49,1.33,6.61,1.1,9.08,0,.06-.09.07-.11.02-.45-1.08-2.53-6.02-3.79-7.67-1.41-1.85-5.11-5.35-7.26-6.46-2.15-1.11-2.58-1.29-4.12-2.7h0c-1.97-1.24-2.89-1.36-3.81-1.97-.92-.62-5.48-4.49-7.2-6.34-1.35-1.45-4.04-3.4-5.14-4.18-.07-.05-.14.03-.09.08h0Z"/><path id="path71" class="cls-2" d="M71.9,179.9c.14-.14.36-.14.51,0,.82.74,3.35,3.02,4.17,3.64.67.5,4.31.38,6.56.25.26-.01.32.35.08.42-2.47.78-6.89,2.18-8.49,2.65-2.28.67-4.25.98-5.72.12-1.29-.75-2.58-1.88-3.21-2.6-.12-.14-.06-.34.1-.41.43-.16,1.19-.46,1.81-.87.88-.59,2.59-1.67,4.18-3.2Z"/><path id="path72" class="cls-6" d="M80.3,124.89c.09.05.05.18-.05.16-1.02-.14-3.18-.29-3.42.88-.31,1.54,2.14,6.97,2.69,7.98.55,1.01,1.85,3.6,4.38,4.29-.09,1.44,5.58,13.75,13.84,16.26.09.03.07.16-.02.16-1.3,0-3.85-.09-4.13.66-.28.74,2.26,5.26,12.54,5.66.16,0,.32.12.36.28.3,1.16,2.82,2.8,8.65,1.72,1.11-.32,1.34.64-2.07,1.52-3.21.83-9,.28-10.98-1.01,0,0-3.97-.05-5.81-1.52-2.17-.65-2.4-.37-4.84-1.89-2.44-1.52-4.98-3.97-7.8-8.49-2.81-4.52-3.69-6.14-6.37-7.52-2.68-1.38-6.37-2.26-7.71-3.46-1.3-1.17-3.75-4.84-2.8-13.84.02-.23.33-.31.46-.11.4.59,1,1.49,1.33,1.87.51.6,1.52,1.29,1.94,2.17.41.88,1.66,2.63,2.49,3.37,0,0-5.38-8.67-3.77-17.56.05-.27.42-.32.54-.08.34.67.85,1.58,1.29,2,.74.69,1.89.92,2.9,1.52,1.02.6,1.24,1.29,1.71,1.98.42.63,2.83,2.02,4.65,3.01h0Z"/><path id="path73" class="cls-6" d="M108.86,166.09c1.66-.21,5.7-.88,8.69-2.62,0,0,2.73-.13,3.52-.13.32.16-.85,1.41-4.08,2.44-2.8.9-6.27.97-8.14.6-.16-.03-.16-.26,0-.29h0Z"/><path id="path74" class="cls-6" d="M115.14,167.26c1.35-.36,4.31-1.36,6.78-3.78,0,0,1.94-.1,2.71-.13s1.48.55-1.81,2.4c-2.78,1.56-5.96,2.08-7.64,1.87-.2-.03-.22-.31-.03-.36h0Z"/><path id="path75" class="cls-6" d="M123.06,166.98c-.2.04-.32-.22-.16-.35,1.1-.88,2.64-2.22,4.37-3.81,1.91-1.75,2.26-1.41,2.64-1.39.22.01,2.34-.43-.74,2.24-2.51,2.19-4.82,3.04-6.12,3.3h0Z"/><path id="path76" class="cls-6" d="M128.28,166.13c-.25.09-.43-.24-.22-.41,1.03-.79,2.54-2.05,3.09-2.99.86-1.48.92-1.6,1.6-1.66.68-.06.75-.19,1.61-.19s.11,1.05-1.3,2.47c-1.07,1.07-3.23,2.21-4.77,2.78h0Z"/><path id="path77" class="cls-6" d="M133.85,164.06c-.17.06-.32-.11-.21-.26.5-.69,1.34-1.9,1.62-2.56.41-.97,1.48-1.02,2.31-1.52s.78.55.23,1.57c-.7,1.29-2.68,2.28-3.95,2.77h0Z"/><path id="path78" class="cls-6" d="M138.92,161.55c1.6-.9,6.63-4.24,9.12-7.32.1-.12.06-.31-.08-.38-.47-.27-1.45-.78-1.87-.68-.55.14-.55,1.39-1.66,2.68-1.11,1.29-2.31,2.44-3,2.49s-2.4-.09-2.72,1.57c-.13.68-.19,1.12-.21,1.39-.01.22.22.36.41.26Z"/><path id="path79" class="cls-5" d="M125.26,149.66c.31.09.29.53-.02.6-2.64.6-9.48,1.02-14.41-8.55-5.95-11.52-5.27-23.22-3-27.58,2.28-4.37,4.8-7.14,7.2-7.57s3.66-.2,5.06,1.39c1.28,1.45,2.58,2.58,3.57,4.49.98,1.91,2.88,4.59-.07,5.33s-7.31,4.23-7.4,11.51c-.07,5.52,1.18,10.46,7.11,16.56.21.21-.04.55-.3.41-1.78-.92-5.02-3.09-6.86-7.44,0,0,.55,3.52,5.39,7.68.05.04,0,.12-.05.1-.86-.26-1.96-.65-3.15-1.51,0,0,1.75,3.07,6.94,4.59h0Z"/><path id="path80" class="cls-1" d="M122.48,140.09s-3.26-3.14-2.4-7.88c.86-4.74,4.58-7.75,6.98-6.58s.52,3.94-.09,5.41-2.03,5.29.25,7.2c0,0-1.72-3.59,1.17-6.59.07-.08.2-.01.19.09-.19,1.26-.66,5.75,1.75,7.63,2.6,2.03,4.65,1.53,6.46.96.13-.04.23.11.14.21-.8.97-3.5,3.64-8.11,2.68,0,0,3.24,2.49,8.76-.95.13-.08.26.07.18.19-.82,1.13-3.1,3.62-7.15,3.52-5.23-.12-9.41-3.78-11.44-7.29s-1.91-8.15-1.23-11.29c.63-2.93,3.33-7.26,8.12-7.24.27,0,.36.38.11.5-1.05.5-2.67,1.45-3.24,2.03-.94.97-3.69,4.4-3.69,8.8,0,3.12,0,6.04,3.26,8.6h0Z"/><path id="path81" class="cls-3" d="M107.45,104.82c.07-.07.19.02.13.1-1.64,2.38-6.19,10.09-4.67,20.4,0,0-.46-17.85,8.57-21.65.23-.1.42.21.24.37-1.17,1.04-3.19,2.91-3.58,3.68-.55,1.11-11.14,17.11,4.25,38.45,0,0-4.37-4-6.03-7.32,0,0,1.97,4.98,3.81,6.95,0,0-1.91-1.23-2.59-2.09,0,0,1.66,2.83,2.71,3.63,0,0-10.09-4.49-12.98-15.69-2.68-10.37-.7-22.7,2.83-27.99.11-.17.38-.03.31.16-1.12,2.75-3.49,9.75-3.32,19.4,0,0,.18-14.22,6.44-20.61.16-.16.42.04.31.24-1.76,3.06-6.22,11.67-5.03,18.77,0,0,.37-11.08,5.87-16.98.15-.16.4.03.29.21-1.63,2.81-5.26,10.11-4.2,17.81,0,0-.63-10.59,6.64-17.85h0Z"/><path id="path82" class="cls-1" d="M55.42,64.24s4.12,5.48,10.7,6.71c0,0-3.75,4.92-.92,8.49,2.83,3.57,12.55,1.23,17.47-.31,0,0-4.06-.8-4.58-1.04-.52-.25.89-2,5.38-3.72,1.02-.49.92-4.09-.34-6.18-1.26-2.09-4.43-5.85-9.97-5.75-5.53.08-7.16,2.76-17.74,1.81Z"/><path id="path83" class="cls-6" d="M88.98,72.79s5.44-1.39,8.12-1.02c2.54.35,4.17.99,10.85,5.84.18.13.39-.1.25-.26-1.13-1.3-3.46-3.67-7.59-6.59-1.19-.89-.47-1.58,3.83-.83.28.05.44-.3.23-.48-1.33-1.13-3.41-3.66-2.67-8.09.51-2.9.14-3.46-3.27-6.74-3.42-3.27-10.11-8.08-18.78-8.21-8.67-.14-11.86,4.47-16.29,6.97-4.43,2.49-8.23,3.15-16.2.97-2.68-.67-3.6-.6-3.46-.32.34.67,3.23,5.17,9.6,7.89,6.37,2.72,12.02,1.24,13.89.37,1.97-.92,8.81-3,13.2-.28s6.41,5.81,8.3,10.79h0Z"/><path id="path84" class="cls-2" d="M143.8,46.3s-.07,1.02-2.01.9-3.93-.56-6.58-3.58c-2.45-2.79-3.77-5.11-4.82-8.71-.07-.23-.39-.21-.43.02-.22,1.4-.34,4.54.87,7.62,1.39,3.51,5.86,6.6,5.86,6.6,0,0-2.28.57-4-.92-1.33-1.15-2.31-1.96-3.25-2.52-.35-.21-.77.13-.63.51.38,1.09.92,2.81.98,4.02.01.24.24.41.47.37,2.16-.36,11.15-1.71,15.73-.3.2.06.4-.09.4-.3,0-1.09.06-3.91.56-4.55.62-.8,1.11-.86,1.6.06.49.92,2.22,3.26,3.44,2.77,1.23-.49-.62-5.11-.49-6.58,1.28.34,4.8,3.63,4.98,3.94.18.31.62-.37,1.35-.31.71.06,1.92,1.24,3.52,1.53.09.02.16-.08.12-.16-.29-.55-1.04-2.14-.87-3.44.02-.16-.06-.32-.2-.41-1.09-.69-5.29-3.95-3.53-12.21.04-.16-.14-.3-.28-.21-1.24.7-5.17,3.46-5.71,10.51,0,0-4.2-1.06-4.8-3.55-.59-2.45-1.23-12.97-10.51-15.35-.14-.04-.26.13-.17.25.54.78,1.76,2.7,1.73,4.31-.05,2.07-2.54,9.04-1.66,12.55.87,3.52,3.13,7.4,8.3,7.16h0Z"/><path id="path85" class="cls-6" d="M119.96,80.05c-.68-1.4-3.24-6.43-5.42-8.11-.25-.19-.22-.58.05-.75.82-.51,2.21-1.56,3.09-3.27,1.17-2.28,1.11-4.09,1.06-4.78s.32-.92.83-.83c.51.09,4.2.23,6.74-2.49,2.54-2.72,2.59-4.01,2.77-4.66s.78-.65,1.39-.74.74-.69,2.22-1.61c1.45-.91,6.26-2.04,13.63-1.72.2,0,.37.16.41.36.22,1.16,1.1,5.01,3.59,7.46,0,0-2.34.84-3.48-4.27-.05-.22-.22-.39-.45-.41-.57-.07-1.65-.03-1.98,1.13-.46,1.61-.78,2.49-.88,3.18-.09.69-.41.97-1.2,1.66s-.65,4.47-.65,4.47c0,0-.83.05-.88.65-.05.6-.23,2.26.09,3.32.27.9,1.03,2.79,1.15,4.71.01.21-.28.27-.36.08-.37-.98-.96-2.42-1.4-3.03,0,0-.83.9-1.23,2.2-.07.22-.33.32-.52.2-.69-.46-2.14-1.69-3.42-4.61,0,0-.51,2.12-1.24,3.42-.74,1.3-.14,4.66.6,7.43.64,2.41,2.27,5.78,4.05,8.31.21.3-.15.67-.46.46-.83-.56-2.08-1.63-3.78-3.69,0,0,.84,3.41.54,6.75-.01.14-.21.16-.25.02-.43-1.81-1.65-6.63-2.65-8.52-1.24-2.35-2.35-3.18-5.26-4.66-2.8-1.42-6.28-4-8.43-4.93-.09-.04-.19.05-.16.15.33.95,1.54,4.49,1.99,7.11,0,.07-.09.1-.12.04h0Z"/><path id="path86" class="cls-6" d="M188.11,26.23s-.3-4.41-.7-7.41c-.03-.21.26-.28.34-.09.53,1.37,1.3,3.3,1.84,4.46.92,1.97,3.32,5.11,4.49,6.95,1.12,1.77,4.74,7.46,1.54,13.04-.17.3-.62.3-.78,0-.91-1.62-3.56-5.56-8.13-6.2-5.27-.73-8.29,1.04-10.09,3.18-.21.25-.62.18-.73-.13-.37-1.02-1.25-2.82-3.04-4-.22-.15-.3-.43-.18-.67.38-.81,1.5-2.51,4.56-3.42,1.03-1.04-.31-11.84-7.67-18.41-.18-.16-.04-.46.2-.44,1.68.12,6.14.75,9.08,2.48,4.59,2.7,9.27,10.66,9.27,10.66Z"/><path id="path87" class="cls-2" d="M175.74,30.75c-1.51.16-4.97.85-4.94,3.88,0,.23-.19.41-.41.4-1.06-.09-3.81-.16-5.64,1.07-.22.15-.52,0-.53-.27-.02-.83-.01-2.2.28-2.65.43-.67,2.64-.98,3.94-.98,0,0-.44-.89-1.06-1.76-.21-.3.1-.69.43-.54,1.02.46,2.41,1.17,3.49,2.02,0,0-1.39-2.1-3.72-3.51-.81-.55-.26-1.89-.39-3.23s-.88-2.86.14-2.72c1.02.14,2.68-.09,6.78,4.34,0,0-1.2-2.9-2.95-4.43-1.7-1.47-2.49-.92-3.49-3.84-.05-.16.05-.32.22-.32.87-.02,3.24.02,4.29.84,1.29,1.02,1.75,3.83,2.07,4.94.28.95.82,4.98,1.72,6.32.13.18,0,.43-.21.45Z"/><path id="path88" class="cls-6" d="M142.57,95.58c.31,1.14,1.16,5.3.02,14.08-.01.11.13.16.18.06.48-.91,1.64-3.22,1.5-7.84.05-1.22,1.41-.72,2.42,1.27.96,1.88,1.51,2.31,2.66,5.75.06.18.32.19.38,0,.56-1.55,3.32-5.97,8.9-5.71.2,0,.27-.25.12-.37-.49-.37-1.14-.98-1.08-1.52.09-.83,1.27-1.93,1.84-3.63.03-.1-.09-.18-.17-.12-.77.58-3.11,2.16-6.01,2.23-1.85.09-1.57-.88-2.03-1.06-.46-.18-2.12.18-3.74-.55-1.33-.61-3.92-2.19-4.81-2.74-.1-.06-.22.03-.19.15h0Z"/><path id="path89" class="cls-2" d="M173.72,95.12s1.78.8,3.14,4.25c0,0,4.56-.38,7.39-2.76.32-.26.43-.71.28-1.09-.51-1.32-2.22-4.41-7.64-7.11-.11-.05-.25,0-.28.12-.23.74-1.11,3.09-3.07,3.4-2.34.37-7.51,1.38-12.43-.22-4.79-1.56-6.27-1.62-7.69-2.49-1.41-.86-4.74-2.71-6.95-5.48-2.22-2.77-2.77-3.69-3.51-5.29-.74-1.6-.74-2.71-1.35-3.69-.62-.98-.86-1.41-1.29-3.08,0,0-.62,2.09-.62,2.83,0,0-1.26.9-4.15-4.2-.04-.07-.14-.06-.16.01-.31.94-1.49,5.39,2.77,8.47.1.08.03.24-.1.2-.62-.19-1.49-.49-1.87-.79,0,0,1.04,4,2.34,6.46,1.23,2.35,1.88,2.62,7.61,3.02.13,0,.15.2.02.22-1.19.23-3.46.67-5.61,1.01-.16.03-.25.21-.16.35.44.64,1.55,2.23,2.88,3.7,1.72,1.91,2.89,3.14,3.75,3.57s1.6.55,2.71.62c.69.04,1.07.41,1.26.68.14.2.38.31.62.29.93-.08,3.27-.56,6.79-3.06,0,0-.43,1.23-2.03,2.95,0,0,2.4-.06,4.67-3.14,0,0-.89,3.81-2.26,6.13-.13.23-.1.51.07.71.65.77,2.7,2.4,8.22,2.26,5.21-.13,7.68-1.75,8.65-2.63.34-.31.46-.79.32-1.23-.37-1.19-1.23-3.68-2.33-5h0Z"/><path id="path90" class="cls-2" d="M185.13,81.04c-.05,1.27-.4,5.64-2.89,8.69-.11.13-.3.17-.45.09-.74-.39-2.84-1.48-3.48-1.71-.78-.28-1.57-.28-2.49-1.34-.83-.96-.99-1.65-.81-2.25.03-.1.14-.17.25-.15.4.1,1.36.28,2.08,0,.85-.34,1.39-1.27,1.83-2.28.07-.16.22-.25.39-.24.66.04,2.28.13,2.9-.02.72-.17,1.32-.34,2.38-.97.12-.08.29.02.29.17Z"/><path id="path91" class="cls-2" d="M175.72,75.97s1.51.93,2.73,3.13c.1.17.31.23.47.13.53-.32,1.47-1.17.72-2.89-.94-2.14-3.58-3.18-5.54-3.37-.25-.02-.47.16-.5.41-.1.97-.4,3.29-.97,4.34-.74,1.34-2.86,2.12-3.69,2.22-.83.09-1.34.46-2.22,1.34-.88.88-1.71,1.24-2.59,1.39,0,0,1.07-.99,1.61-2.11.08-.16-.02-.35-.2-.38-1.46-.21-7.26-1.17-10.82-4.02-3.98-3.18-7.57-7.22-5.22-14.24.13-.38.03-.81-.27-1.08-.66-.61-1.78-1.88-2.31-3.84-.09-.32-.47-.46-.73-.25-.74.58-1.94,1.91-2.23,4.46-.41,3.74,1.52,6.09,1.52,6.09,0,0-1.94-.07-3.18-5.88,0,0-.6,4.43,1.09,6.16,0,0-1.36-.53-2.19-1.78,0,0-.34,10.5,13.78,11.79,0,0-3.48.57-6.5.31-.23-.02-.38.24-.25.43,1.23,1.8,6.18,7.76,11.35,3.66.02-.02.06,0,.05.03-.09.33-.43,1.47-.93,1.97,0,0,.86.52,2.75,1.03s1.89.97,2.54,1.02c.65.05,2.7-1.44,3.66-3.86,0,0-.65,2.04-1.33,3.22-.09.15.06.32.22.26.57-.21,1.48-.6,1.94-1.02,0,0,.12.74.03,1.23,0,0,3.88.43,4.86-1.94.46-1.04-.03-4.89-.03-4.89,0,0,.71,1.46.89,2.75,0,0,.46-.76.41-1.22,0,0,.48.75.63,1.45.15.71,1.48.55,2.31-.03.83-.58,1.29-1.34.85-2.23-1.03-2.05-2.06-2.94-2.74-3.78h0Z"/><path id="path92" class="cls-1" d="M143.31,74.42c-.16-.17-.43,0-.37.22.67,2.27,1.32,3.41,2.79,5.5,2.24,3.2,9.13,8.71,13.94,9.9,4.67,1.17,11.04.16,12.21-.34,1.13-.47,2.72-.95,2.33-3.82-.02-.16-.18-.26-.33-.21-.68.21-2.41.73-3.36.86-1.09.15-2.03-.03-2.69-.7-.11-.11-.3-.13-.42-.02-.6.48-1.98,1.65-3.7,1.56-2.02-.11-4.36-1.22-5.42-2.57-.11-.14-.3-.19-.47-.13-.77.28-3.07.64-5.22-.93-2.73-1.99-4.21-3.37-4.7-5.44-.03-.11-.1-.21-.2-.26-.51-.27-2.21-1.29-4.39-3.63h0Z"/><path id="path93" class="cls-1" d="M171.73,68.7c.02-.17-.2-.26-.3-.12-.56.7-1.65,2.04-2.21,2.51-.78.65-2.95.09-3.83-.97-.88-1.06-1-1.4-2.7-.97-1.71.44-2.42-1.39-3.07-1.43s-1.96-.16-2.33-.72c-.37-.55-.67-1.22-1.64-1.22s-2.82-.48-3.33-4.92c-.02-.17-.2-.28-.36-.21-.78.35-2.55,1.66-1.66,6.14,1.11,5.56,7.89,8.65,10.52,9.39,2.63.74,7.98.99,9.92-.44,1.77-1.3,2.24-2.64,2.92-4.24.05-.1-.04-.21-.15-.21-.41.04-1.24.1-2.08.11-.07,0-.13-.06-.11-.14.08-.41.31-1.63.41-2.57h0Z"/><path id="path94" class="cls-2" d="M158.42,60.33s.33,1.15-4.5.66c-.37-.04-.61.38-.38.67.36.47.85,1.05,1.33,1.43.92.74,2.37,2.06,3.38,1.54,1.02-.52,3.35-1.87,4.3-2.49,0,0-1.97,1.78-3.35,2.83-.46.34.43.98.58,1.17s.52.55,1.32-.21c.8-.77,2.74-2.49,3.42-3.14,0,0-2.15,2.74-2.77,3.38s.46,1.2.67,1.41,1.32.8,2.15-.09c.83-.89,1.91-2.55,2.15-3.2,0,0-.52,2.18-1.41,3.32-.89,1.14.92,1.87,1.26,2.09s2.24,1.32,3.35-.21,1.91-2.46,2.46-3.51c0,0-.09,2.87-.18,4.37-.01.25.18.45.42.46.47,0,1.19-.02,1.51-.29.51-.41,1.06-.23,1.57.14.51.37,1.89.28,2.31-.78.4-1.01,1.96-5.03-.52-7-.21-.17-.52-.16-.72,0-.37.31-1.08.76-2.08.91-1.57.23-6.32,0-9.41-2.72-2.96-2.6-3.55-3.55-4.96-5.9-.11-.19-.07-.44.08-.6.56-.6,2.02-2.08,3.78-3.06.32-.18.41-.59.18-.88-.77-1-2.59-3.08-5.38-4.36-.15-.07-.31.05-.31.21.01.34.09.89.37,1.41.46.83.6,1.8.28,2.63-.82-.17-2.49-3.91-4.15-5.07-.15-.1-.35,0-.37.17-.12,1-.53,3.72-1.62,4.02-1.27.35-2.21-.05-4.09-2.11-.11-.12-.31-.05-.32.11-.05,1.39-.1,5.62.89,7.53,1.2,2.29,3.18,5.85,8.72,5.15h0Z"/><path id="path95" class="cls-1" d="M174.12,62.84c-.16.27-.48.41-.79.35-1.2-.23-4.12-.91-5.91-2.49-2.31-2.03-3.64-4.06-3.32-5.54.26-1.21,3.09-3.83,9.55-3.92,6.46-.09,9.18,1.89,10.01,3.18s1.06,2.44-.92,2.77c-1.91.31-6.31,1.78-8.61,5.65Z"/><path id="path96" class="cls-6" d="M186.78,72.59c.3.23.72-.08.6-.44-.44-1.29-1.13-3.6-1.17-5.64-.06-3.01,1.35-4.98,1.72-5.85.34-.79.31-2.81.8-3.67.07-.11,0-.26-.12-.31-.45-.16-1.39-.44-2.4-.48-1.41-.06-.65,1.08-1.54,1.66-.89.58-6.14,2.92-7.17,4-.26.63,1.66,1.72,2.03,2.68.44,1.14,1.14,4.25-.8,7.01-.38.28-4.03-.06-4.4-.13-.37-.07-.28,1.21-.25,1.42.03.21,1.66.18,2.68.4,1.12.25,3.44.67,3.8,4.52.09,1.94-.51,2.49-.55,2.81-.05.32,1.98,1.24,1.66-.37-.31-1.58-1.19-7.21,2.33-10.61.12-.12.32-.09.41.06.34.61,1.2,2.03,2.37,2.92h0Z"/><path id="path97" class="cls-2" d="M172.7,50.06c-.06,0-.09-.07-.06-.12.17-.24.57-.68,1.21-1.11.46-.3.48.68.51,1.14.02.29-1.24.13-1.66.09h0Z"/><path id="path98" class="cls-2" d="M208.11,46.58s2.94-2.85,5.67-3.48c.2-.05.36.16.27.34-.71,1.46-3,6.38-3.54,9.88-.65,4.15-.31,7.58.18,11.81.62,5.2-3.32,13.01-3.32,13.01,0,0,2.4-3.05,3.32-6.09.9-2.98,2.51-8.6,8.02-8.33.19,0,.31.19.26.36-.27.87-.85,3.4.03,7.51,1.11,5.17,1.11,9.04-.23,11.63-1.34,2.59-3.05,5.63-3.05,5.63,0,0,2.77-2.59,3.74-4.98,0,0,.03,4.61-4.2,9.66-.31.36-.89.28-1.08-.16-1.11-2.58-4.66-9.65-10.78-11.63,0,0,2.35-5.72,2.17-8.49-.18-2.77-.91-6.92-1.89-9.87-.98-2.95-1.04-3.75-1.35-4.8-.31-1.04-1.04-.55-.62.55.43,1.11,2.59,8.61,2.4,11.69-.18,3.08-2.34,7.57-4.06,8.43,0,0,.18-1.23-.06-2.52,0,0-.62,3.32-1.72,4.92-1.11,1.6-4.43,5.35-4.92,6.27-.49.92-3.33,6.34-3.26,9.35.06,2.71.98,2.46,4,6.22,2.01,2.5,4.25,5.72,4.18,9.35-.05,3.14-1.86,5.23-3.26,5.96-.31.16-.68.06-.9-.21-.62-.79-3.37-2.02-7.97-1.64-.22.02-.3-.28-.1-.37,2.13-.9,5.86-2.89,6.38-6.03.73-4.38.92-10.46-7.77-11.53-.14-.02-.21-.16-.14-.28.3-.49,1-1.54,1.51-1.54.67,0,1.69.63,2.52,1.32,0,0-.83-1.02-1.48-1.94-.65-.92-.37-1.85-.83-2.44-.46-.6-2.03-2.03-1.98-2.63.04-.49.82-2.82,1.15-3.89.07-.24.37-.33.56-.16.67.59,1.98,2.03,2.81,4.79,0,0,.83-1.89-2.81-6.83,0,0,.12-6.18-.25-6.86-.31-.57-1.56.31-2.23,1.23-.12.16-.38.1-.41-.1-.17-1.18-.29-4.4,1.19-8.05.12-.3.54-.32.7-.04.52.98,1.5,2.64,2.53,3.15,1.48.74,2.03,3.57,4.3,3.88,0,0-2.09-2.09-3.08-6.15-.95-3.91-.76-8.45-.74-9.38,0-.06.05-.1.1-.11.48-.05,2.65.23,5.62,7.96,0,0-.67-5.29-3.38-9.9-.75-1.18.05-4.38.55-5.91.09-.28.44-.38.67-.19,1.4,1.19,5.49,5.63,7.22,17.79,0,0,0-5.35-1.23-10.64-1.23-5.29-2.4-8.24-3.14-9.48s.12-3.81,2.95-6.4c1.11-.98,2.09-1.23,2.09,2.03s1.72,7.75,1.72,7.75c0,0-.06-3.75.25-5.04s1.72-2.64,2.77-3.94c1.02-1.26,2.33-3.04,2.91-5.18.02-.09.13-.13.21-.08.39.31,1.36,1.42.81,4.83h0Z"/><path id="path99" class="cls-2" d="M228.72,94.6c.08-.2.35-.22.46-.05.49.76,1.47,2.37,1.54,3.06.09.92.16,1.63.58,2.06.41.41-.76,4.4-6.01,8.96-.25.22-.64.03-.62-.3.05-1.12.07-3.16-.34-5.21-.05-.27,0-.55.16-.78.69-.99,2.7-3.98,4.24-7.74h0Z"/><path id="path100" class="cls-2" d="M226.29,85.53c-.99-2.06-2.66-5.18-4.79-6.94-.34-.28-.86-.09-.94.35-.15.86-.38,2.14-.55,2.99-.28,1.39.18,3.6-.92,7.2-1.11,3.6-1.75,5.26-2.95,6.83-1.2,1.57.28,2.22.65,5.08.36,2.84,1.28,19.04-13.06,20.91-.17.02-.29.2-.23.36.4,1.09,3.13,4.59,10.84,3.98.32-.03.38-.47.07-.58-2.05-.69-5.83-2.09-6.76-3.36,0,0,7.33,1.06,10.24-.65,2.6-1.53,4.52-4.66,5.06-8.88.05-.36-.4-.56-.64-.3-1.29,1.37-4.14,4.02-7.64,5.03,0,0,9.5-5.4,9.01-13.71-.01-.21-.28-.28-.39-.11-.13.2-.3.43-.48.66l-.48-.28-.14-.27c1.63-2.22,3.42-5.07,4.44-7.97,2.22-6.27.78-8.02-.33-10.32h0ZM222.14,104.6l.14.38c-.89.99-2.18,2.26-3.65,3.15,0,0,1.37-1.42,3.03-3.6l.47.07Z"/><path id="path101" class="cls-2" d="M197.39,122.91c.76.04,2.97.17,3.94.6.06.03.12-.02.12-.09-.06-.47-.35-1.95-1.4-1.97-1.21-.03-1.82-.71-2.8,1.2-.06.11.01.25.14.26h0Z"/><path id="path102" class="cls-6" d="M165.08,105.48c2.03.22,7.36.29,11.39-1.08.12-.04.24.06.21.18-.22,1.27-.23,2.71-.16,3.61.1,1.3.34,2.22.86,2.98.61.89.83,1.57-.82,1.2-1.45-.32-3.47-.18-4.95.09s-2.75.96-3.37,1.2c-1.52.6-1.51.63-1.41-2.14.08-2.37-.76-4.22-1.99-5.59-.16-.18,0-.48.24-.46h0Z"/><path id="path103" class="cls-6" d="M206.66,127.97c-.28,0-.5.24-.49.52.05,1.17.08,2.22.24,2.3.16.08,1.4.14,2.48.11.17,0,.24-.22.11-.33-.4-.31-.98-.83-1.38-1.4,0,0,1.81,1.52,4.45,1.15.11-.01.15-.16.05-.23-.51-.36-1.61-1.25-2.38-2.17l-3.08.04Z"/><path id="path104" class="cls-6" d="M210.04,128.31c.12-.28.25-.62,1.03-.62s1.61,0,2.72-.23c1.05-.22,2.18-.81,2.77-1.3.06-.05.14-.08.22-.07.34.04,1.3.13,1.91.06.1-.01.17.1.11.18-.3.47-.89.98-2.85.88,0,0,.29.34.78.63.07.04.06.15-.02.17-.35.1-1.14.22-2.5,0,0,0-.03.48.91.89.05.02.07.09.03.13-.25.22-.98.78-1.68.58-.85-.26-1.8-.35-2.47-.72-.67-.36-.97-.6-.97-.6h0Z"/><path id="path105" class="cls-6" d="M220.67,123.46c.18-.07.33.14.22.29-.49.68-1.56,1.79-3.28,1.76-1.94-.02-2.77-.65-4.06-.83s-1.29-.65.34-.83c1.1-.12,2.06-.12,2.61-.25.55-.12,1.08.51,1.75.49.72-.02,1.78-.39,2.42-.64h0Z"/><path id="path106" class="cls-3" d="M208.32,117.57c-.05.23.21.4.39.26,1.54-1.14,5.91-5.01,6.66-12.49.73-7.14-2.38-11.86-3.74-13.56-.08-.1-.23,0-.17.11.78,1.48,2.3,4.72,2.53,7.73,0,0-1.48-5.08-5.39-9.94-.11-.14-.34.01-.25.17.72,1.36,1.95,3.73,2.29,4.84,0,0-2.1-3.2-3.67-4.82-.15-.15-.39.02-.29.21.6,1.17,1.58,3.17,1.75,4.06,0,0-2.86-5.72-5.72-7.1,0,0,3.38,4.03,4.25,6.12,0,0-2.82-3.7-4.92-5.24-.1-.07-.22.06-.14.16,1.04,1.11,3.21,3.52,4.13,5.27,0,0-2.77-3.2-5.61-4.78-.14-.08-.27.12-.15.22,2.2,1.74,7.09,6.24,7.85,12.4,0,0-3.63-9.73-9.23-11.09-.14-.04-.23.16-.11.24,2.46,1.85,13.12,10.9,9.54,27.22h0Z"/><path id="path107" class="cls-5" d="M198.06,98.35s8.21,5.63,8.12,16.61l.65-3.32.37,2.95.37-1.94.65,1.57s1.48-6.83-1.02-11.72c-2.49-4.89-6.55-10.89-10.7-10.89-2.86.09-3.05,2.12-2.86,3.14.18,1.02,1.02.55,2.4.46,1.39-.09,3.42.37,4.8,2.22,0,0-1.57-1.29-4.61-1.2,0,0,3.42,1.11,5.81,4.25,0,0-1.85-1.57-3.97-2.13h0Z"/><path id="path108" class="cls-1" d="M196.92,104.29s6.36,1.15,5.25,8.89c-.03.21.22.36.39.21.35-.31.78-.92.94-2.02,0,0,.56,3.11-1.57,3.94-2.31.89-2.03,1.05-2.03,1.79s-.37,1.29,1.08,1.23c1.54-.06,5.35-1.72,4.37-7.57s-5.41-10.89-10.27-11.26c-1.35-.12-1.17.31.06.55,1.23.25,4,1.11,5.29,3.01,0,0-2.46-2.34-5.17-1.97-1.23.18-.86.92-.86,1.23s0,1.04.8.98,2.22-.12,3.57.49c0,0-.98-.06-1.84.49h0Z"/><path id="path109" class="cls-5" d="M107.92,57.19c4.73-1.89,8.29.95,8.16,5.75-.12,4.8-3.87,6.99-6.33,6.62-2.46-.36-5.72-1.45-6.34-4.04-.62-2.59-1.03-6.12,4.51-8.34Z"/><path id="path110" class="cls-5" d="M109.56,54.46c-1.39.16-1.5-5.48.37-8,2.03-2.74,5.65-5.01,10.95-3.32,4.74,1.51,6.35,5.73,5.84,8.49-.54,2.93-2.64,7.05-8.67,6.49-.19-.02-.36-.13-.46-.31-.5-.93-2.56-3.96-8.03-3.35h0Z"/><path id="path111" class="cls-5" d="M174.62,41.88c-.12,4.71-3.08,6.64-6.27,6.64s-6-3.35-6-6.61,2.59-5.91,5.78-5.91c3.19,0,6.58,2.18,6.49,5.87Z"/><path id="path112" class="cls-5" d="M181.17,39.08c3.57-.61,7.81,1.29,9.48,3.88s1.2,4.67.55,5.97c-.65,1.29-.98,2.09-1.08,2.74-.09.65-.83,1.91-1.94,2.92-1.11,1.02-1.94,1.32-2.95.21s-3.23-2.61-4.61-3.17c-1.39-.55-4.34-1.35-5.08-1.45s-1.2-1.11-.65-2.49c.55-1.39,1.23-3.05,1.23-4.25s1.82-3.82,5.05-4.37Z"/><path id="path113" class="cls-5" d="M191.04,107.12c.18,5.17-3.42,6.99-6.83,6.92-4.43-.09-6.56-2.4-6.47-6.74.07-3.21,2.97-5.66,6.38-5.81,4.15-.19,6.79,1.94,6.92,5.63h0Z"/><path id="path114" class="cls-5" d="M165.3,112.1c-.08,3.99-3.4,7.2-7.51,7.2-2.16,0-4.55-1.4-5.17-2.83-.13-.29-.32-.55-.6-.71-1.14-.63-1.86-2.06-1.8-3.91.13-3.99,3.36-6.94,7.47-6.94,4.1,0,7.69,2.76,7.6,7.19h0Z"/><path id="path115" class="cls-2" d="M154.27,122.64h0c-.31,0-.57-.26-.57-.57v-.78c0-.2.16-.36.36-.36h.57c.2,0,.36.16.36.36v.63c0,.4-.32.72-.71.72Z"/><path id="path116" class="cls-2" d="M151.64,132.02s-.69,1.71-.55,2.11c.06.19,1.02.18,1.19.01.11-.11-.25-1.75-.63-2.12Z"/><path id="path117" class="cls-5" d="M160.92,144.09c-.1,4.62-4.78,8.53-9.23,8.53s-7.93-3.84-7.93-8.46,3.61-8.37,8.06-8.37,9.23,2.7,9.11,8.3h0Z"/><path id="path118" class="cls-5" d="M195.18,124.31l-1.92,3.67s-1.76,1.89-2.44,3.11c-.09.16-.11.35-.11.53-.03,1.87,1.9,6.64,6.94,6.9,5.35.28,7.43-4.38,7.25-7.43-.18-3.05-1.14-5.17-3.55-6.34-2.38-1.16-5.01-.83-5.81-.69-.15.02-.28.12-.35.26h0Z"/><path id="path119" class="cls-1" d="M172.43,130.13s.87-6.64-5.8-9.63c-.39-.17-.57-.62-.41-1.01.71-1.75,3.35-6.06,9.9-5.47,8.24.74,10.21,3.81,12.3,8,0,0,.24-1.75-1.36-3.75-.29-.36-.02-.9.45-.89,1.82.05,5.08.56,5.81,3.38,1.02,3.97-2.64,5.91-3.42,6,0,0,1.08,7.32-6.74,10.03-4.66,1.59-7.83.6-9.31-.18-.49-.26-1.08-.1-1.38.36-.78,1.2-2.58,3.14-6.07,3.39-4.2.31-6.14-1.46-6.58-3.17-.1-.38.34-.67.64-.42.69.57,1.82,1.35,3.15,1.7,2.37.62,3.81.48,3.47-1.53-.04-.21.15-.39.35-.34.89.21,2.86.53,3.52-.36,0,0-1.91.37-3.32-.67-1.41-1.04-3.32-2.46-5.72-2.4-2.15.05-4.27.57-5.15,1.86-.22.32-.65.45-1.01.31-.89-.36-2.23-1.43-1.9-4.69.49-4.8,3.88-9.17,9.48-9.29,5.6-.13,8.73,4.92,9.1,8.8h0Z"/><path id="path120" class="cls-3" d="M149.39,182.16c.36,2.75,1.22,5.39,1.9,9.23.06.36-.29.67-.65.6-1.72-.32-6.34-1.78-10.37-5.02-.16-.13-.11-.4.08-.47,1.59-.59,7.07-2.7,8.58-4.45.14-.16.43-.1.46.11h0Z"/><path id="path121" class="cls-3" d="M220.25,151.11c-.1-.21.03-.45.26-.46.79-.04,2.32-.12,2.92-.26.72-.16,3.36-2.45,4.54-3.55.16-.16.43-.03.43.19-.08,2.5-.52,11.82-2.75,12.21-1.66.28-3.32-4.06-3.88-5.17-.41-.81-1.15-2.25-1.53-2.98h0Z"/></g></g><g id="g135"><path id="path122" class="cls-4" d="M100.15,266.39s3.97,3.28,7.57-.52c.16-.17.35-.17.55-.04.25.17.76.55.88,1.85.18,2.02,1.03,6.15,3.37,10.8,2.14,4.25,3.88,5.63,12,8.95,8.12,3.32,7.75-7.75,18.09-10.89s14.4-6.27,24.36-7.2c9.97-.92,16.06,2.77,18.27-1.11,2.22-3.88,7.2-6.64,12.74-10.15,5.54-3.51,7.01-4.25,12.37-7.01,5.35-2.77,5.17-2.03,11.63-8.12s6.46-2.95,9.97-11.81c3.51-8.86,6.64-14.03,10.33-22.33,3.69-8.3,6.27-6.27,6.64-14.03.37-7.75-.92-11.81-3.14-12.18s-12.55,1.29-12.55,1.29c0,0-23.81,11.44-30.82,13.48-7.01,2.03-7.01.55-11.07,4.06-4.06,3.51-2.03,6.09-8.3,5.54-6.27-.55-10.09-1.17-10.09-1.17,0,0-4.43-2.22-6.4-1.85s-3.26.86-4.06,1.48c-.8.62-2.08.68-2.61.71s-.51.72-1.11,1.15-2.49-.57-3.05-2.23c0,0-5.04.92-6.95,4.06,0,0-3.08.37-4.12,1.72,0,0-3.88-.86-5.66,1.41,0,0-2.59.74-4,1.85-1.41,1.11-1.6.92-1.97,1.85-.37.92-.49,1.17-1.66,2.22-1.17,1.05-1.35,1.6-1.66,2.34s-.74,1.48-1.85,1.97-1.48,1.11-1.78,1.66-1.6,1.29-2.59,2.34-2.83,3.08-3.32,5.6c-.49,2.52-.62,4.3-.8,6.09-.18,1.78-1.6,3.01-2.28,5.17-.67,2.15-3.57,3.32-3.57,3.32l-9.11,5.6s2.14,11.19-4.25,14.14h0Z"/><g id="g134"><path id="path123" class="cls-2" d="M241.58,185.72c.17-.06.34.09.3.27-.36,1.44-1.8,6.13-5.9,9.54-1.72,1.45-2.06,2.77-2.06,2.77,0,0,4.16.09,9.06-6.05.07-.09.22-.05.23.07.11,1.65.16,9.31-8.1,15.71-.31.24-.75.23-1.04-.02-.97-.83-3.29-2.6-5.97-3.02,0,0,5.49,3.14,6.51,5.77.98,2.55-.29,5.49-3.53,9.21-.15.17-.42.16-.56-.02-.72-.95-2.88-3.48-5.83-4.12,0,0,5.95,3.01,5.34,8.06,0,0-1.28.13-1.62.27,0,0,.91,6.14-3.89,12.61-.2.27-.63.16-.67-.18-.27-2.37-1.17-8.76-3.42-12.49,0,0,1.81,6.03,1.72,10.46-.09,4.43-1.11,4.25-1.66,5.08-.52.78-1.92,4.04-5.03,6.65-.27.23-.69.03-.68-.32.02-1.76.04-5.7-.1-6.97-.18-1.66-1.39-5.26-1.66-6.64,0,0,.4,7.66-1.57,11.72-1.66,3.42-1.66,3.69-2.49,4.25-.83.55-2.97,3.17-3.97,3.69-2.49,1.29-15.87,6.83-17.62,4.06-1.7-2.69-5.23-6.13-6.74-21.22-.09-.92,5.44,2.31,13.37,1.24,1.04-.14,4.78-.89,7.39-1.52,3.05-.74,6.49-1.94,6.92-3.97.43-2.03-.98-1.6-.49-4.18,0,0,.8.25,2.03,1.17s2.22,1.23,4.12-.31,5.11-3.32,10.09-12.67c4.69-8.8-.08-12.75-1.35-13.9-.1-.09-.08-.25.04-.31.67-.37,2.57-1.53,2.42-2.64-.18-1.35-1.35-5.54-1.11-5.78.25-.25,7.75-1.66,10.7-5.54,0,0,4.13.33,6.83-.7h0Z"/><path id="path124" class="cls-6" d="M213.78,196.45s2.59,18.33-9.6,24.24c-12.18,5.91-20.92,6.15-32.36,4.67l-1.35,4.55s-.25.37,2.34,1.23l1.23-1.11.74,2.34s6.77,1.85,12.06,2.34c5.24.49,6.98.94,18.71-4.18.22-.1.37-.31.39-.55l.39-5.87c0-.12.15-.18.24-.1.83.67,3.78,3.02,4.38,3.5.69.55,1.66.41,2.54-.37.88-.78,4.94-4.66,7.98-10.24,3.05-5.58,3-12.32,1.94-13.79-.97-1.35-2.52-2.54-3.62-3.13-.13-.07-.13-.25,0-.31.5-.28,1.5-.83,1.87-1.04.51-.28-.41-4.01-.88-4.98-.47-.97-6.99,2.81-6.99,2.81h0Z"/><path id="path125" class="cls-1" d="M200.27,216.1s-2.72-6.55-6.41-10.7c-1.11-1.11-.18-2.12.6-2.03.78.09,2.35.28,4.43-.69,1.94-.9,7.16-3.41,9.17-4.57.21-.12.47-.03.56.2.88,2.27,4.07,13.42-4.93,20.84-9.08,7.5-25.53,3.75-28.78,2.8-.3-.09-.46-.41-.34-.7.55-1.34,1.88-4.88,1.25-6.81-.78-2.4,0-2.63.97-2.59.94.05,7.81.79,14.95-6.22.31-.3.8-.29,1.09.04,1.47,1.64,5.54,6.36,7.45,10.44h0Z"/><path id="path126" class="cls-2" d="M107.46,253.79l7.65-4.84c.28-.18.65.05.61.38-.09.79-.17,1.97-.02,2.74.25,1.23.58,2.52,1.04,3.26.44.71,1.28,2.26-.38,3.93-.09.09-.23.03-.23-.1.01-.59.04-1.86-.04-2.59-.01-.14-.19-.18-.26-.06-.78,1.27-3.64,5.89-4.75,7.05-1.29,1.35-1.97,1.72-2.15-.98-.06-.92-1.41.12-2.09.86-.67.74-.86,1.29-2.59,1.35-.55-.06,1.14-2.06,1.72-3.35.59-1.29,1.61-1.35,1.48-7.66h0Z"/><path id="path127" class="cls-6" d="M130.11,278.02c-3.95,1.19-7.38,2.59-11.93.86-4.55-1.72-5.66-4.92-5.66-7.88s.37-2.59.25-4.18c-.12-1.6,1.6-3.94,2.46-4.06.86-.12,3.44-.92,3.88-4.25.43-3.32,1.35-4.25,1.04-6.09s-1.11-3.32-.62-6.4c.49-3.08,2.83-4,3.32-6.71.49-2.71.67-4.06.62-5.54s.31-4.25,2.03-5.23c0,0,1.6,2.15,3.57,1.6,1.97-.55,2.34-1.54,3.01-3.57,0,0,2.09.98,1.91,4.67s-1.23,5.66-4.92,8.61c0,0,1.97-.8,3.08-1.66,0,0-.49,12.55.18,19.63.67,7.07,2.89,18.64-2.22,20.17h0Z"/><path id="path128" class="cls-6" d="M142.32,218.96s-1.29,3.05-3.51,3.32c-2.22.28-3.32-1.2-3.97-1.94-.65-.74-1.57.65-1.29,1.2.28.55,1.39,1.57,1.39,1.57,0,0-1.75,1.29-1.85,1.66s1.11.92,1.29,1.85c.18.92.65,3.69.18,6.55-.46,2.86-1.29,2.26-1.57,4.38-.28,2.12-.43,13.15.06,20.41.49,7.26,1.11,13.53,1.97,14.03s11.93,1.11,11.2-4.43c-.74-5.54-6.58-19.38-5.91-26.08s.49-7.51,1.54-9.17c0,0-2.4,1.54-4.25,1.66,0,0,4.43-2.83,5.72-5.66,1.3-2.84,2.4-6.9-1.01-9.36h0Z"/><path id="path129" class="cls-6" d="M156.24,214.1c-.29-.13-.62,0-.76.29-.45.94-1.66,2.89-3.94,3.03-3.02.18-4.15-1.11-4.45-1.36-.3-.25-.88-.53-1.68.44s-.94.92-.18,2.54c.76,1.61.97,2.72.88,4.66-.09,1.94-2.12,5.55-2.61,6.38-.49.83-.09,6.55.46,10,.55,3.44,2.09,15.5,2.09,15.5l6.22-.31s-3.38-18.64-.25-23.5c3.14-4.86,4.18-5.11,5.78-7.07,1.99-2.44,1.91-5.66,1.66-6.83-.24-1.08-1.14-2.84-3.21-3.76h0Z"/><path id="path130" class="cls-6" d="M170.14,212.5c-.26-.14-.59-.08-.78.14-.64.74-2.26,2.31-4.37,2.26-2.77-.06-4.43-.95-4.43-3.72.11-.49-1.78.37-1.29.86.74.74,1.04,1.14,1.66,2.43.11.24,2.71,4.37-2.59,12.43-5.29,8.06-1.85,18.03-1.85,18.03l5.41,4.61,3.94-15.44s-.06-3.75,1.66-6.27c1.72-2.52,4.43-5.23,5.04-6.64.6-1.38,3.01-5.78-2.41-8.68h0Z"/><path id="path131" class="cls-2" d="M170.01,206.19c.32-.21.25-.69-.12-.79-1.05-.29-2.93-.42-5.03,1.14-3.2,2.4-3.32,6.03-1.11,6.64,2.01.56,3.37-1.09,3.79-1.82.09-.16.08-.34,0-.49-.37-.62-1.02-2.46,2.47-4.68h0Z"/><path id="path132" class="cls-2" d="M155.33,209.33c.45-.32.26-1.03-.29-1.08-1.16-.11-2.85.03-4.51,1.25-3.22,2.37-3.14,6.14-.92,6.75,2.38.66,3.89-1.4,3.97-1.72-.15-.17-1.78-2.69,1.75-5.2h0Z"/><path id="path133" class="cls-2" d="M140.01,219.99c0,.32-.24.59-.55.66-.83.17-2.4.3-3.32-.88-1.29-1.66-.43-3.57-.06-4.25.37-.67,2.64-2.46,5.17-2.28,1.2.09,2.04.46,2.59.82.38.26.28.85-.17.95-.98.22-2.38.7-2.91,1.74-.6,1.15-.72,2.52-.74,3.24h0Z"/><path id="path134" class="cls-2" d="M132.78,223.09c.27.12.31.5.05.67-.57.39-1.5.83-1.84,1.36-.52.83-.43,1.2-.43,2s-.43,1.75-2.24,1.75-2.61-1.81-1.72-3.23c.85-1.35,3.19-3.83,6.18-2.54h0Z"/></g></g><g id="g136"><circle id="circle135" class="cls-4" cx="165.73" cy="266.47" r="41.31"/><ellipse id="ellipse135" class="cls-3" cx="165.73" cy="265.61" rx="40" ry="39.14"/><path id="path135" class="cls-4" d="M200.21,243.72l-6.04-1.69-14.6-10.96-2.71-4.39h0c-3.54-.99-7.27-1.52-11.13-1.52s-7.56.52-11.09,1.5h0l-3.18,5.14-15.04,10.53-5.08,1.24c-3.73,5.6-6.14,12.16-6.75,19.23l3.58,4.68,6.23,18.96.15,7.08c3.84,4.42,8.6,8.02,13.98,10.49l8.05-3.23h19.97l7.02,2.95h0c5.66-2.71,10.6-6.67,14.47-11.52l-.54-7.69,5.14-16.2,4.28-5.13h0c-.56-7.15-2.95-13.8-6.7-19.47h0ZM179.7,233.19l13.17,9.89-.16,12.6-13.21,3.98-12.93-9.16v-12.3l13.13-5.01ZM152.14,233.32l12.79,4.88v12.3l-13.26,9.39-13.16-4.04-.16-12.87,13.79-9.65ZM148.23,287.43l-12.96-3.5-5.03-15.29,7.79-11.22,13.11,4.03,5.17,15.51-8.09,10.47ZM174.59,299.17h-17.46l-7.63-10.73,8.4-10.87h16.48l7.94,10.53-7.73,11.06ZM195.98,283.92l-12.27,3.32-8.29-10.99,5.06-15.17,12.86-3.88,7.76,10.61-5.12,16.11Z"/></g></g></g></g></svg>