<?xml version="1.0" encoding="UTF-8"?><svg id="uuid-b7d15e0d-1aa7-4aef-ae0e-2ca5b92bc421" xmlns="http://www.w3.org/2000/svg" viewBox="0 0 316.31 127.6">
<title>Sina logo - Brandlogos.net</title><path d="M70.19.19c-1.63.43-3.02,1.45-4.23,2.59-2.37,2.26-4.26,4.98-5.91,7.79-.93,1.42-1.89,3-3.46,3.78-.86.44-2.31.18-2.46-.93-.22-1.48.19-2.97.19-4.45,0-.74-.03-1.66-.7-2.12-1.03-.46-2.07.31-2.82.96-1.9,1.81-2.88,4.33-3.92,6.69-.75,1.64-1.09,3.58-2.45,4.87-.64.65-1.82.34-2.12-.5-.68-1.64.08-3.45-.3-5.14-.25-.87-1.32-.58-1.83-.13-1.77,1.4-2.61,3.59-3.51,5.59-1.01,2.25-1.64,4.67-2.79,6.86-1.67,3.58-2.9,7.48-2.81,11.47.05,3.57,1.41,7.09,3.82,9.74,3.2,3.57,7.68,5.68,12.21,7.01,6.89,1.97,14.2,2.33,21.29,1.41,5.91-.76,11.75-2.27,17.19-4.73,3.92-1.8,7.67-4.13,10.63-7.3,2.37-2.53,4.15-5.7,4.73-9.15.71-4.06-.17-8.27-1.92-11.96-.44-.89-.77-1.95-.31-2.91,1.43-3.12,4.65-5.2,5.54-8.61.38-1.36-1.07-2.33-2.29-2.1-3.94.4-7.37,2.69-10.44,5.04-1.13.82-2.48,1.76-3.95,1.38-.72-.12-1.11-.88-1.01-1.56.15-1.66.96-3.16,1.71-4.61.79-1.54,1.98-2.93,2.25-4.69.11-.66.03-1.5-.62-1.87-.83-.44-1.81-.22-2.66,0-2.45.7-4.44,2.39-6.26,4.09-1.24,1.19-2.49,2.39-3.62,3.69-.8.88-1.6,1.8-2.62,2.43-.79.48-1.82.71-2.69.34-.77-.4-.9-1.38-.84-2.16.23-3.08,2.07-5.76,2.41-8.82.07-.7,0-1.64-.74-1.97-.85-.32-1.81-.22-2.68-.02Z" style="fill:none;"/><path d="M246.22,54.8l-.77,2.49c-3.61,0-7.22,0-10.83,0-3.03,10.04-6.08,20.07-9.1,30.11-.39,1.36-.68,3.03.34,4.2,1.12,1.15,2.86,1.24,4.37,1.26,2.58,0,5.16,0,7.73,0,.41-1.49.83-2.97,1.24-4.46-1.74,0-3.49-.02-5.23.02-.45-.01-.96-.02-1.3-.34-.38-.51-.15-1.16,0-1.71.97-3.18,1.94-6.36,2.9-9.55,7.9.03,15.8.04,23.7.03,1.49-4.88,2.99-9.77,4.48-14.65.35-1.06.27-2.33-.5-3.19-1.05-1.2-2.71-1.64-4.24-1.7-2.28,0-4.55.02-6.83-.02.26-.83.51-1.66.76-2.49-2.24,0-4.49,0-6.74,0Z" style="fill:#fefefe;"/><path d="M73.01,59.39c-3.42,11.05-6.81,22.11-10.22,33.17,4.32.01,8.65,0,12.97,0,2.73-8.73,5.37-17.48,8.11-26.2,2.93-1.57,6.37-2.5,9.74-2.15,1.11.13,2.37.35,3.11,1.27.65.77.66,1.86.56,2.81-.28,2.26-.89,4.46-1.58,6.63-1.82,5.88-3.65,11.76-5.47,17.64,4.32,0,8.65,0,12.97,0,2.54-8.25,5.11-16.49,7.64-24.74.78-2.82,1.25-6.02-.16-8.72-.78-1.58-2.39-2.49-3.99-3.06-3.78-1.36-7.86-1.32-11.81-1.1-7.45.43-14.89,1.8-21.88,4.45Z" style="fill:#fefefe;"/><path d="M122.82,56.52c-.9,2.92-1.82,5.84-2.72,8.76,5.85-2.05,12.14-3.12,18.33-2.33,1.42.23,2.94.48,4.11,1.39,1.02.81,1.1,2.28.73,3.45-1.45,4.85-2.92,9.69-4.38,14.54-2.74,1.65-5.93,2.72-9.16,2.52-1.56-.03-3.37-.2-4.42-1.51-.75-.93-.27-2.21.05-3.22.7-2.05,2.72-3.25,4.71-3.8,2.39-.64,4.87-.88,7.33-1.07.67-2.28,1.35-4.56,2.02-6.84-5.94.41-12.01.72-17.62,2.89-3.44,1.32-6.73,3.51-8.57,6.79-1.13,2.03-1.92,4.31-1.89,6.65.04,2.55,1.54,5.07,3.88,6.16,4.34,2.08,9.32,1.98,14,1.49,7.73-.86,15.4-3.65,21.38-8.73.46-.36.87-.8.97-1.41,1.55-5.07,3.13-10.13,4.68-15.2.66-2.34.9-5.03-.35-7.22-1.14-2.03-3.34-3.14-5.49-3.78-3.67-1.07-7.53-1.23-11.33-1.26-5.46.04-10.91.64-16.26,1.74Z" style="fill:#fefefe;"/><path d="M176.99,54.82c-.26.83-.51,1.67-.77,2.5-3.08,0-6.17,0-9.25,0-.4,1.39-.8,2.77-1.21,4.16,8.51,0,17.01,0,25.52,0,.43-1.38.87-2.76,1.3-4.14-3.25-.02-6.51-.03-9.76-.02.26-.83.51-1.67.77-2.5-2.2,0-4.4,0-6.6,0Z" style="fill:#fefefe;"/><path d="M14.64,58.77c-3.07,1.68-5.95,4.09-7.27,7.41-.89,2.25-1.24,4.93-.06,7.14,1.15,2.17,3.45,3.39,5.69,4.14,3.95,1.34,8.19,1.34,12.17,2.54.72.24,1.66.56,1.8,1.43.15,1.21-.71,2.29-1.75,2.81-1.87.96-4.02,1.06-6.08,1.12-5.75.15-11.72-1.59-16.09-5.42-1.01,3.43-2.04,6.86-3.06,10.28,4.6,1.95,9.63,2.77,14.61,2.87,5.06.11,10.22-.38,14.98-2.18,3.86-1.49,7.65-3.8,9.82-7.43,1.31-2.26,2.13-5.02,1.42-7.6-.58-2.13-2.46-3.59-4.42-4.4-3.4-1.41-7.12-1.68-10.7-2.38-1.48-.3-3.01-.54-4.37-1.24-1.04-.56-.9-2.05-.24-2.85.83-.99,2.13-1.39,3.34-1.7,4.09-.95,8.39-.45,12.35.84,2.19.72,4.16,1.99,5.87,3.53,1-3.35,1.98-6.7,2.97-10.04-4-1.58-8.31-2.35-12.6-2.51-6.28-.22-12.81.58-18.39,3.66Z" style="fill:#fefefe;"/><path d="M270.98,62.09c-3.34,10.26-6.69,20.51-10.03,30.77,2.32,0,4.64,0,6.97,0,3.47-10.61,6.92-21.22,10.39-31.83.26-.81,1-1.51,1.9-1.41,9.17.01,18.34-.02,27.51.02.97-.07,1.39,1.06,1.06,1.84-2.69,8.33-5.43,16.65-8.14,24.98-.28.92-.96,1.85-1.99,1.9-2,.05-4.01,0-6.01.01-.52,1.5-1.04,3.01-1.55,4.51,3.02,0,6.03,0,9.05,0,2.01-.06,4.14-.57,5.62-2.02,1.32-1.2,1.92-2.94,2.44-4.6,2.59-8.08,5.17-16.16,7.76-24.24.45-1.63.59-3.57-.48-4.99-.98-1.28-2.7-1.62-4.23-1.64-10.6,0-21.19,0-31.79,0-4-.12-7.32,3.08-8.5,6.71Z" style="fill:#fefefe;"/><path d="M198.95,56.28c-2.77.96-4.75,3.5-5.61,6.23-3.06,10.11-6.12,20.22-9.17,30.33,2.2,0,4.39,0,6.59,0,2.19-7.18,4.35-14.37,6.53-21.55,1.72,0,3.45,0,5.18,0-2.17,7.18-4.34,14.36-6.51,21.54,2.2,0,4.4,0,6.59,0,2.2-7.18,4.35-14.37,6.53-21.55.89,0,1.78,0,2.67,0,.43-1.39.84-2.79,1.26-4.18-4.82-.01-9.63,0-14.45,0,.57-1.86,1.12-3.73,1.69-5.59.21-.75.82-1.51,1.66-1.49,4.42-.02,8.84,0,13.26,0,.43-1.39.84-2.8,1.26-4.19-4.25,0-8.49,0-12.74,0-1.59,0-3.23-.11-4.75.45Z" style="fill:#fefefe;"/><path d="M221.78,63.11c1.78,2.39,4.82,3.39,7.68,3.68.49-1.63.99-3.26,1.49-4.89-1.01-.36-1.99-.88-2.68-1.72-1.01-1.19-1.34-2.82-1.21-4.35-2.07,0-4.14,0-6.21,0-.6,2.41-.61,5.21.94,7.28Z" style="fill:#fefefe;"/><path d="M50.48,59.3c-2.34,10.38-4.62,20.77-6.46,31.26-.95,5.52-1.85,11.06-2.2,16.66-.05,1.6-.15,3.22.12,4.81.1.41.16.96.65,1.1.69.02,1.23-.49,1.67-.97,1.06-1.19,1.84-2.58,2.61-3.96,2.86-5.38,5.1-11.06,7.32-16.72,4-10.4,7.64-20.93,11.08-31.52-4.9.94-9.97.46-14.8-.66Z" style="fill:#fefefe;"/><path d="M167.43,63.05c.17,1.35.35,2.7.52,4.06-1.29,0-2.58,0-3.87,0-.4,1.38-.81,2.76-1.21,4.14,3.23,0,6.47,0,9.7,0-.34,1.1-.67,2.2-1.01,3.3-3.24,0-6.49,0-9.73,0-.42,1.37-.84,2.74-1.25,4.12,3.24.01,6.48,0,9.72,0-1.45,4.72-2.9,9.45-4.35,14.17h6.26c1.43-4.72,2.87-9.44,4.29-14.16,3.19-.02,6.38,0,9.57-.01.42-1.37.83-2.75,1.25-4.12-3.19,0-6.38,0-9.57,0,.34-1.1.67-2.2,1-3.29,3.18,0,6.36,0,9.54,0,.42-1.38.84-2.76,1.26-4.14-1.23,0-2.47,0-3.7,0,.96-1.35,1.94-2.69,2.9-4.04-2.12.01-4.24-.03-6.36.02-.93,1.36-1.91,2.68-2.87,4.02-1.76,0-3.52,0-5.27,0-.17-1.35-.35-2.71-.53-4.06-2.1,0-4.2,0-6.3,0Z" style="fill:#fefefe;"/><path d="M279.82,63.07c-.95,4.46-1.08,9.13-.01,13.59-1.56,1.68-3.26,3.23-5.13,4.56-.23.17-.51.33-.57.64-.47,1.43-.92,2.86-1.38,4.29,3.27-.81,6.24-2.56,8.73-4.81.89,1.8,2.04,3.5,3.58,4.82.69-2.11,1.35-4.23,2.05-6.33-.68-.88-1.27-1.83-1.73-2.84,3.08-4.17,5.33-8.92,6.83-13.87-1.58,0-3.16,0-4.74,0-.78,2.93-2.01,5.72-3.62,8.29-.42-2.76-.2-5.59.25-8.33-1.43,0-2.86,0-4.28,0Z" style="fill:#fefefe;"/><path d="M293.66,63.07c-1.12,4.41-1.37,9.08-.4,13.55-1.59,1.85-3.36,3.59-5.4,4.93-.5,1.53-.99,3.07-1.48,4.6,3.19-.84,6.07-2.64,8.45-4.9.89,1.84,2.04,3.58,3.61,4.91.69-2.11,1.35-4.23,2.05-6.33-.74-.95-1.35-1.99-1.8-3.11,2.91-4.13,5.03-8.78,6.49-13.6-1.58,0-3.16,0-4.74,0-.81,2.6-1.83,5.14-3.13,7.54-.16-2.55.11-5.1.64-7.59-1.43,0-2.86,0-4.28,0Z" style="fill:#fefefe;"/><path d="M217.37,67.07c-.68,2.41-.79,5.22.7,7.36,1.75,2.52,4.87,3.63,7.81,3.98.5-1.63.99-3.26,1.48-4.89-1.07-.34-2.11-.89-2.79-1.81-1.02-1.31-1.2-3.06-.99-4.65-2.07.01-4.14,0-6.21,0Z" style="fill:#fefefe;"/><path d="M237.54,78.39c.64,3.18,2.03,6.26,4.26,8.65,3.23,3.49,7.9,5.43,12.59,5.86.54-1.72,1.08-3.45,1.62-5.17-1.95-.28-3.84-.91-5.55-1.88,3.23-1.69,5.87-4.36,7.83-7.41-1.96-.01-3.92,0-5.88-.04-1.39,1.92-3.16,3.57-5.23,4.72-1.22-1.41-2.2-3.02-2.84-4.77-2.27.03-4.53.02-6.8.06Z" style="fill:#fefefe;"/><path d="M158.49,85.46c-.6,1.88-1.2,3.75-1.69,5.66,2.36-.16,4.61-1.18,6.4-2.7,2.51-2.14,4.19-5.14,5.11-8.28-1.61-.01-3.23,0-4.84,0-.87,2.35-2.62,4.4-4.98,5.32Z" style="fill:#fefefe;"/><path d="M177.04,80.13c-.06,1.54-.04,3.1.37,4.59.65,2.68,2.42,5.12,4.88,6.41.54-1.88,1.19-3.73,1.65-5.63-1.54-1.33-2.16-3.4-2.22-5.37-1.56,0-3.12,0-4.67,0Z" style="fill:#fefefe;"/><path d="M218.96,80.52c-1.57,2.76-4.45,4.45-7.34,5.52-.71,2.27-1.48,4.54-2.07,6.85,6.97-.79,13.49-5.62,15.69-12.37-2.1,0-4.19,0-6.28,0Z" style="fill:#fefefe;"/><path d="M86.02,101.77c-.41,1.48-.86,2.96-1.28,4.45,1.66,0,3.33,0,4.99,0,.43-1.49.86-2.97,1.29-4.46-1.67,0-3.34-.02-5,0Z" style="fill:#fefefe;"/><path d="M63.69,109.85c-1.81,1.22-3.27,3.18-3.37,5.42-.09,1.19.57,2.35,1.57,2.99,1.88,1.24,4.2,1.34,6.35,1.76,1.05.2,2.38.24,2.99,1.26.31.98-.5,1.94-1.33,2.38-1.57.76-3.4.81-5.11.65-1.28-.11-2.6-.86-2.85-2.21-1.63.26-3.27.48-4.89.79.09,1.02.44,2.05,1.22,2.75,1.23,1.12,2.91,1.58,4.52,1.82,3.4.43,6.97-.07,10.02-1.69,1.74-.92,3.12-2.54,3.62-4.47.36-1.27.34-2.83-.67-3.8-1.48-1.46-3.7-1.5-5.61-1.93-1.46-.35-3.09-.34-4.37-1.22-.94-.72-.19-2.06.63-2.53,1.46-.84,3.27-.87,4.9-.64,1.04.13,1.92.93,2,2,1.55-.27,3.09-.51,4.64-.77-.1-1.01-.44-2.04-1.21-2.74-1.29-1.18-3.11-1.5-4.79-1.62-2.83-.17-5.85.16-8.23,1.82Z" style="fill:#fefefe;"/><path d="M98.34,112.63c.42-1.42.83-2.84,1.23-4.25-1.52,0-3.04,0-4.56,0-1.82,6.27-3.63,12.55-5.44,18.82,1.66,0,3.32,0,4.99,0,.89-3.05,1.77-6.1,2.65-9.16.27-.98.6-1.96,1.12-2.84.93-1.65,2.56-2.9,4.4-3.36,1.09-.25,2.43-.2,3.19.72.7.82.51,1.99.23,2.94-1.13,3.9-2.25,7.79-3.38,11.69,1.66,0,3.33,0,4.99,0,1.16-4,2.31-8,3.47-12,.49-1.78.99-4.01-.34-5.55-1.49-1.55-3.84-1.86-5.87-1.56-2.77.46-4.98,2.43-6.69,4.54Z" style="fill:#fefefe;"/><path d="M123.1,108.65c-2.53.73-5.01,2.27-6.16,4.73,1.37.16,2.75.47,4.12.49,1.03-1.95,3.28-2.82,5.4-2.84,1.37,0,2.98-.07,4.06.93.87.97.14,2.29-.12,3.36-3.17-.07-6.38.05-9.48.82-1.82.47-3.63,1.19-5.05,2.45-1.42,1.25-2.34,3.14-2.24,5.06.09,1.44,1.1,2.71,2.39,3.3,1.77.79,3.79.75,5.67.45,2.52-.41,4.8-1.88,6.35-3.9-.26,1.21-.39,2.46-.31,3.7,1.58,0,3.17,0,4.75,0-.04-1.25.08-2.5.42-3.7.88-3.09,1.8-6.17,2.67-9.26.31-1.28.74-2.76-.05-3.96-.88-1.46-2.64-2-4.24-2.16-2.72-.26-5.52-.21-8.17.52Z" style="fill:#fefefe;"/><path d="M154.2,110.94c-3.02,2.45-4.92,6.26-4.98,10.15-.03,2.37,1.13,4.96,3.45,5.86,2.48.96,5.32.79,7.81-.07,3.01-1.04,5.38-3.43,6.8-6.23-1.4-.14-2.8-.25-4.19-.38-.99,1.69-2.52,3.26-4.55,3.53-1.37.25-3.11-.12-3.68-1.54-.71-1.8-.1-3.78.53-5.51.89-2.16,2.38-4.45,4.78-5.06,1.22-.28,2.69-.34,3.72.5.81.69.82,1.85.74,2.83,1.48-.18,2.96-.34,4.44-.51.11-1.63-.09-3.44-1.25-4.7-1.33-1.44-3.4-1.78-5.27-1.81-3.02-.08-6.04.99-8.34,2.95Z" style="fill:#fefefe;"/><path d="M181.37,108.15c-5.41.82-10.17,5.21-11.17,10.63-.49,2.39-.03,5.11,1.68,6.92,1.58,1.57,3.93,1.92,6.06,1.88,3.85-.04,7.58-1.85,10.14-4.7,1.91-2.16,3.08-4.97,3.27-7.85.14-2.2-.84-4.47-2.7-5.71-2.12-1.44-4.84-1.51-7.29-1.17Z" style="fill:#fefefe;"/><path d="M201.78,112.29c.38-1.3.75-2.6,1.13-3.91-1.61,0-3.23,0-4.84,0-1.82,6.27-3.63,12.55-5.44,18.83,1.71,0,3.42,0,5.14,0,1.01-3.44,1.97-6.89,3-10.32.97-3.12,4.27-5.65,7.61-4.97.88.15,1.6.92,1.6,1.84.04,1.31-.53,2.52-.83,3.77-.93,3.23-1.87,6.45-2.8,9.68,1.76,0,3.52,0,5.29,0,.96-3.3,1.91-6.61,2.87-9.91.44-1.55,1.22-3.07,2.51-4.09,1.55-1.27,3.8-1.74,5.69-1.03,1.12.46,1.3,1.85.99,2.89-1.14,4.05-2.34,8.09-3.5,12.13,1.74,0,3.49,0,5.23,0,1.3-4.49,2.61-8.97,3.89-13.47.43-1.44.18-3.14-.91-4.22-1.35-1.39-3.44-1.63-5.28-1.49-3.07.22-5.77,2.05-7.75,4.31-.1-1.27-.49-2.63-1.57-3.41-1.44-1.04-3.34-1.03-5.02-.83-2.8.37-5.24,2.06-7.01,4.19Z" style="fill:#fefefe;"/><path d="M249.15,109.98c-3.59,2.3-6.01,6.33-6.27,10.59-.1,1.83.38,3.78,1.65,5.16,1.18,1.25,2.93,1.74,4.6,1.84,3,.22,6.08-.7,8.42-2.61,1.43-1.17,2.52-2.69,3.38-4.31-1.4-.13-2.79-.26-4.19-.38-.93,1.55-2.25,3.01-4.08,3.44-1.33.31-3.02.24-3.89-.97-.84-1.22-.64-2.82-.32-4.18.49-2.05,1.46-4.03,2.97-5.52,1.44-1.42,3.78-1.97,5.66-1.16,1.17.55,1.31,2,1.19,3.14,1.47-.18,2.95-.34,4.42-.51.1-1.46-.03-3.03-.89-4.26-.79-1.15-2.13-1.78-3.47-2.04-3.14-.57-6.51.02-9.19,1.79Z" style="fill:#fefefe;"/><path d="M276.01,108.82c-1.78.87-3.22,2.3-4.46,3.81.42-1.42.83-2.84,1.23-4.25-1.52,0-3.04,0-4.55,0-1.82,6.27-3.63,12.55-5.44,18.82,1.66,0,3.33,0,4.99,0,.96-3.31,1.91-6.62,2.87-9.92.54-1.82,1.61-3.55,3.26-4.55,1.3-.84,3.03-1.38,4.51-.72,1.13.51,1.41,1.91,1.07,3.01-1.14,4.07-2.35,8.12-3.5,12.18,1.66,0,3.33,0,4.99,0,1.14-3.94,2.27-7.88,3.41-11.81.42-1.43.79-2.97.41-4.46-.32-1.32-1.56-2.17-2.78-2.58-1.96-.62-4.17-.46-6.01.47Z" style="fill:#fefefe;"/><path d="M84.11,108.38c-1.81,6.27-3.63,12.54-5.44,18.82,1.66,0,3.32,0,4.98,0,1.82-6.27,3.63-12.55,5.45-18.82h-5Z" style="fill:#fefefe;"/><path d="M138.82,122.28c-.48,1.64-.95,3.28-1.42,4.92,1.8,0,3.6,0,5.4,0,.48-1.64.95-3.28,1.42-4.92-1.8,0-3.6,0-5.4,0Z" style="fill:#fefefe;"/><path d="M232.48,122.28c-.48,1.64-.95,3.28-1.43,4.92,1.8,0,3.6,0,5.41,0,.47-1.64.95-3.28,1.42-4.92-1.8,0-3.6,0-5.4,0Z" style="fill:#fefefe;"/><path d="M61.67,36.67c.45-.25,1.13-.11,1.36.38.58,1-.75,2.39-1.75,1.74-.75-.55-.39-1.78.39-2.12Z" style="fill:#fefefe;"/><path d="M57.12,37.41c1.46-.42,3.15.39,3.66,1.84.97,2.57-1.29,5.66-4.02,5.61-1.32,0-2.52-.97-2.85-2.24-.6-2.22,1.01-4.67,3.2-5.21Z" style="fill:#fefefe;"/><path d="M240.2,61.59c5.18,0,10.35-.04,15.53-.03.53-.04,1.15.32,1.09.92-.09.78-.34,1.52-.54,2.27-5.68,0-11.36,0-17.04,0,.32-1.06.64-2.11.96-3.16Z" style="fill:#fefefe;"/><path d="M236.86,72.61c.37-1.21.73-2.41,1.1-3.62,5.67,0,11.35,0,17.02,0-.37,1.17-.73,2.35-1.1,3.53-5.68.05-11.35.02-17.03.09Z" style="fill:#fefefe;"/><path d="M181.1,111.66c1.35-.27,2.97-.31,4.08.66,1.08,1.09.99,2.81.73,4.21-.45,2.08-1.22,4.19-2.72,5.74-1.4,1.47-3.59,2.07-5.55,1.65-1.14-.23-2.04-1.2-2.24-2.33-.32-1.7.16-3.43.75-5.01.86-2.21,2.51-4.39,4.95-4.92Z" style="fill:#fefefe;"/><path d="M122.04,118.71c2.44-.92,5.09-1.04,7.67-1.07-.37,1.34-.68,2.76-1.6,3.85-1.74,2.34-4.92,3.4-7.72,2.65-.98-.26-1.67-1.29-1.43-2.3.29-1.56,1.68-2.61,3.09-3.13Z" style="fill:#fefefe;"/><path d="M70.19.19c.87-.21,1.83-.3,2.68.02.74.33.81,1.27.74,1.97-.34,3.06-2.18,5.74-2.41,8.82-.06.78.06,1.75.84,2.16.87.37,1.91.15,2.69-.34,1.02-.64,1.82-1.55,2.62-2.43,1.13-1.31,2.38-2.5,3.62-3.69,1.83-1.7,3.82-3.39,6.26-4.09.86-.22,1.84-.43,2.66,0,.65.37.73,1.21.62,1.87-.27,1.76-1.46,3.15-2.25,4.69-.75,1.45-1.56,2.96-1.71,4.61-.1.68.29,1.44,1.01,1.56,1.47.38,2.82-.56,3.95-1.38,3.07-2.35,6.49-4.64,10.44-5.04,1.22-.23,2.66.74,2.29,2.1-.89,3.4-4.11,5.49-5.54,8.61-.46.95-.13,2.02.31,2.91,1.75,3.69,2.63,7.9,1.92,11.96-.58,3.45-2.35,6.61-4.73,9.15-2.96,3.17-6.71,5.5-10.63,7.3-5.44,2.46-11.28,3.97-17.19,4.73-7.09.92-14.4.56-21.29-1.41-4.53-1.34-9.01-3.45-12.21-7.01-2.4-2.64-3.77-6.17-3.82-9.74-.09-3.99,1.14-7.89,2.81-11.47,1.15-2.19,1.78-4.61,2.79-6.86.9-2,1.73-4.19,3.51-5.59.51-.45,1.58-.73,1.83.13.38,1.69-.38,3.49.3,5.14.3.84,1.47,1.16,2.12.5,1.36-1.29,1.7-3.22,2.45-4.87,1.04-2.36,2.02-4.88,3.92-6.69.74-.65,1.79-1.43,2.82-.96.68.46.7,1.38.7,2.12,0,1.48-.41,2.97-.19,4.45.15,1.11,1.6,1.37,2.46.93,1.57-.79,2.52-2.36,3.46-3.78,1.65-2.82,3.54-5.53,5.91-7.79,1.21-1.13,2.6-2.16,4.23-2.59ZM62.2,22.31c-6,.68-11.98,2.65-16.8,6.36-2.49,1.94-4.68,4.46-5.61,7.52-.73,2.34-.52,4.94.6,7.12,1.43,2.82,4.01,4.89,6.79,6.29,4.28,2.14,9.13,2.92,13.89,2.91,6.05-.07,12.15-1.43,17.47-4.36,3.29-1.84,6.36-4.37,8.1-7.77,1.38-2.65,1.67-5.93.42-8.68-1.44-3.26-4.43-5.54-7.59-7.01-5.37-2.45-11.44-3-17.26-2.38Z" style="fill:#d41a28;"/><path d="M60.43,28.36c2.47-.41,5.12-.07,7.29,1.23,1.97,1.15,3.45,3.11,3.99,5.34.65,2.67.08,5.55-1.3,7.9-2.86,4.94-9.18,7.86-14.73,6.12-2.35-.73-4.4-2.45-5.42-4.7-1.17-2.49-1.03-5.46.03-7.96,1.75-4.13,5.73-7.2,10.14-7.93ZM61.67,36.67c-.79.34-1.15,1.57-.39,2.12,1,.65,2.33-.74,1.75-1.74-.23-.49-.9-.63-1.36-.38ZM57.12,37.41c-2.2.53-3.8,2.98-3.2,5.21.32,1.27,1.53,2.24,2.85,2.24,2.72.06,4.99-3.03,4.02-5.61-.5-1.45-2.2-2.26-3.66-1.84Z" style="fill:#191512;"/><path d="M246.22,54.8c2.24,0,4.49,0,6.74,0-.25.83-.5,1.66-.76,2.49,2.28.04,4.55.01,6.83.02,1.54.06,3.19.5,4.24,1.7.76.86.84,2.13.5,3.19-1.49,4.89-2.99,9.77-4.48,14.65-7.9,0-15.8,0-23.7-.03-.97,3.18-1.93,6.37-2.9,9.55-.14.55-.38,1.2,0,1.71.34.33.85.33,1.3.34,1.74-.04,3.48-.02,5.23-.02-.41,1.49-.83,2.97-1.24,4.46-2.58,0-5.16,0-7.73,0-1.51-.02-3.25-.12-4.37-1.26-1.02-1.16-.72-2.84-.34-4.2,3.02-10.04,6.07-20.07,9.1-30.11,3.61,0,7.22,0,10.83,0l.77-2.49ZM240.2,61.59c-.32,1.05-.64,2.11-.96,3.16,5.68,0,11.36,0,17.04,0,.2-.75.45-1.49.54-2.27.06-.6-.56-.96-1.09-.92-5.18-.02-10.35.02-15.53.03ZM236.86,72.61c5.67-.07,11.35-.04,17.03-.09.37-1.18.73-2.35,1.1-3.53-5.67,0-11.35,0-17.02,0-.37,1.2-.73,2.41-1.1,3.62Z" style="fill:#191512;"/><path d="M73.01,59.39c6.99-2.65,14.43-4.01,21.88-4.45,3.95-.22,8.04-.26,11.81,1.1,1.59.57,3.21,1.48,3.99,3.06,1.41,2.7.94,5.9.16,8.72-2.53,8.25-5.1,16.49-7.64,24.74-4.33,0-8.65,0-12.97,0,1.82-5.88,3.64-11.76,5.47-17.64.69-2.16,1.3-4.37,1.58-6.63.1-.95.09-2.04-.56-2.81-.75-.92-2-1.14-3.11-1.27-3.36-.35-6.8.58-9.74,2.15-2.74,8.72-5.39,17.47-8.11,26.2-4.33-.01-8.65,0-12.97,0,3.41-11.06,6.81-22.12,10.22-33.17Z" style="fill:#191512;"/><path d="M122.82,56.52c5.35-1.1,10.8-1.7,16.26-1.74,3.8.03,7.66.2,11.33,1.26,2.15.64,4.35,1.75,5.49,3.78,1.25,2.19,1.01,4.88.35,7.22-1.55,5.07-3.13,10.13-4.68,15.2-.09.6-.5,1.05-.97,1.41-5.97,5.07-13.65,7.86-21.38,8.73-4.68.49-9.66.59-14-1.49-2.34-1.08-3.84-3.6-3.88-6.16-.03-2.34.76-4.63,1.89-6.65,1.84-3.27,5.13-5.46,8.57-6.79,5.61-2.17,11.69-2.48,17.62-2.89-.67,2.28-1.34,4.56-2.02,6.84-2.46.19-4.94.43-7.33,1.07-1.98.55-4,1.75-4.71,3.8-.32,1.01-.81,2.29-.05,3.22,1.05,1.32,2.86,1.48,4.42,1.51,3.23.2,6.42-.87,9.16-2.52,1.46-4.85,2.93-9.69,4.38-14.54.37-1.16.29-2.63-.73-3.45-1.16-.91-2.69-1.16-4.11-1.39-6.19-.79-12.48.29-18.33,2.33.9-2.92,1.82-5.84,2.72-8.76Z" style="fill:#191512;"/><path d="M176.99,54.82c2.2,0,4.4,0,6.6,0-.25.83-.51,1.67-.77,2.5,3.25,0,6.51,0,9.76.02-.43,1.38-.87,2.76-1.3,4.14-8.5,0-17.01,0-25.52,0,.4-1.38.81-2.77,1.21-4.16,3.08,0,6.17,0,9.25,0,.25-.84.51-1.67.77-2.5Z" style="fill:#191512;"/><path d="M14.64,58.77c5.57-3.08,12.11-3.88,18.39-3.66,4.29.16,8.59.94,12.6,2.51-.99,3.35-1.98,6.7-2.97,10.04-1.71-1.54-3.68-2.81-5.87-3.53-3.95-1.29-8.26-1.79-12.35-.84-1.21.31-2.5.72-3.34,1.7-.66.8-.79,2.29.24,2.85,1.35.7,2.89.94,4.37,1.24,3.58.7,7.3.98,10.7,2.38,1.96.81,3.83,2.28,4.42,4.4.71,2.59-.11,5.35-1.42,7.6-2.17,3.63-5.96,5.94-9.82,7.43-4.77,1.8-9.92,2.28-14.98,2.18-4.98-.1-10.01-.92-14.61-2.87,1.02-3.43,2.05-6.85,3.06-10.28,4.37,3.83,10.33,5.56,16.09,5.42,2.06-.07,4.21-.16,6.08-1.12,1.04-.52,1.9-1.6,1.75-2.81-.13-.87-1.07-1.19-1.8-1.43-3.98-1.2-8.23-1.2-12.17-2.54-2.24-.75-4.54-1.97-5.69-4.14-1.18-2.21-.83-4.89.06-7.14,1.32-3.32,4.21-5.73,7.27-7.41Z" style="fill:#191512;"/><path d="M270.98,62.09c1.17-3.63,4.5-6.83,8.5-6.71,10.6,0,21.19,0,31.79,0,1.53.02,3.24.36,4.23,1.64,1.07,1.42.92,3.36.48,4.99-2.59,8.08-5.18,16.16-7.76,24.24-.52,1.65-1.11,3.4-2.44,4.6-1.48,1.45-3.61,1.96-5.62,2.02-3.02.01-6.04,0-9.05,0,.51-1.5,1.03-3.01,1.55-4.51,2-.02,4.01.04,6.01-.01,1.04-.05,1.72-.98,1.99-1.9,2.7-8.33,5.44-16.65,8.14-24.98.33-.79-.09-1.91-1.06-1.84-9.17-.03-18.34,0-27.51-.02-.9-.09-1.64.6-1.9,1.41-3.47,10.61-6.93,21.22-10.39,31.83-2.32,0-4.64,0-6.97,0,3.35-10.26,6.69-20.51,10.03-30.77Z" style="fill:#191512;"/><path d="M198.95,56.28c1.52-.56,3.16-.44,4.75-.45,4.24,0,8.49,0,12.74,0-.43,1.39-.84,2.8-1.26,4.19-4.42,0-8.84-.01-13.26,0-.85-.02-1.45.75-1.66,1.49-.57,1.86-1.12,3.72-1.69,5.59,4.81,0,9.63,0,14.45,0-.42,1.39-.84,2.79-1.26,4.18-.89,0-1.78,0-2.67,0-2.18,7.18-4.33,14.38-6.53,21.55-2.2-.02-4.4,0-6.59,0,2.17-7.18,4.35-14.36,6.51-21.54-1.73,0-3.45,0-5.18,0-2.18,7.18-4.34,14.37-6.53,21.55-2.2,0-4.4,0-6.59,0,3.05-10.11,6.11-20.22,9.17-30.33.86-2.73,2.84-5.27,5.61-6.23Z" style="fill:#191512;"/><path d="M221.78,63.11c-1.55-2.07-1.54-4.87-.94-7.28,2.07,0,4.14,0,6.21,0-.13,1.53.2,3.16,1.21,4.35.68.84,1.67,1.36,2.68,1.72-.5,1.63-.99,3.26-1.49,4.89-2.86-.28-5.9-1.29-7.68-3.68Z" style="fill:#191512;"/><path d="M50.48,59.3c4.83,1.12,9.89,1.6,14.8.66-3.44,10.59-7.08,21.12-11.08,31.52-2.22,5.66-4.47,11.34-7.32,16.72-.77,1.38-1.55,2.77-2.61,3.96-.44.47-.98.98-1.67.97-.49-.14-.55-.69-.65-1.1-.27-1.59-.17-3.21-.12-4.81.35-5.6,1.25-11.14,2.2-16.66,1.84-10.48,4.12-20.88,6.46-31.26Z" style="fill:#191512;"/><path d="M167.43,63.05c2.1,0,4.2,0,6.3,0,.18,1.35.35,2.7.53,4.06,1.75,0,3.51,0,5.27,0,.96-1.34,1.94-2.66,2.87-4.02,2.12-.05,4.23-.01,6.36-.02-.96,1.35-1.94,2.69-2.9,4.04,1.23,0,2.46,0,3.7,0-.42,1.38-.84,2.76-1.26,4.14-3.18,0-6.36,0-9.54,0-.34,1.1-.67,2.2-1,3.29,3.19,0,6.38,0,9.57,0-.42,1.37-.84,2.75-1.25,4.12-3.19.01-6.38,0-9.57.01-1.42,4.72-2.86,9.44-4.29,14.16h-6.26c1.45-4.72,2.9-9.45,4.35-14.17-3.24,0-6.48,0-9.72,0,.41-1.38.83-2.75,1.25-4.12,3.24,0,6.49,0,9.73,0,.34-1.1.67-2.2,1.01-3.3-3.23,0-6.47,0-9.7,0,.4-1.38.8-2.76,1.21-4.14,1.29,0,2.58,0,3.87,0-.17-1.35-.35-2.7-.52-4.06Z" style="fill:#191512;"/><path d="M279.82,63.07c1.42,0,2.85,0,4.28,0-.45,2.75-.67,5.57-.25,8.33,1.6-2.57,2.84-5.36,3.62-8.29,1.58,0,3.16,0,4.74,0-1.5,4.95-3.76,9.7-6.83,13.87.46,1.01,1.05,1.96,1.73,2.84-.69,2.11-1.36,4.22-2.05,6.33-1.54-1.32-2.69-3.02-3.58-4.82-2.49,2.25-5.46,4-8.73,4.81.46-1.43.91-2.86,1.38-4.29.05-.31.33-.46.57-.64,1.87-1.33,3.57-2.88,5.13-4.56-1.07-4.45-.94-9.13.01-13.59Z" style="fill:#191512;"/><path d="M293.66,63.07c1.43,0,2.86,0,4.28,0-.53,2.49-.79,5.04-.64,7.59,1.3-2.4,2.33-4.94,3.13-7.54,1.58,0,3.16,0,4.74,0-1.46,4.82-3.58,9.48-6.49,13.6.45,1.11,1.06,2.16,1.8,3.11-.69,2.11-1.36,4.23-2.05,6.33-1.56-1.33-2.72-3.08-3.61-4.91-2.38,2.27-5.26,4.07-8.45,4.9.49-1.53.98-3.07,1.48-4.6,2.05-1.35,3.81-3.08,5.4-4.93-.97-4.46-.72-9.13.4-13.55Z" style="fill:#191512;"/><path d="M217.37,67.07c2.07,0,4.14,0,6.21,0-.21,1.6-.03,3.35.99,4.65.68.92,1.72,1.46,2.79,1.81-.49,1.63-.98,3.26-1.48,4.89-2.94-.35-6.06-1.45-7.81-3.98-1.48-2.15-1.38-4.95-.7-7.36Z" style="fill:#191512;"/><path d="M237.54,78.39c2.27-.03,4.53-.03,6.8-.06.64,1.75,1.62,3.36,2.84,4.77,2.07-1.16,3.85-2.8,5.23-4.72,1.96.04,3.92.03,5.88.04-1.96,3.05-4.6,5.72-7.83,7.41,1.71.98,3.6,1.61,5.55,1.88-.54,1.72-1.08,3.44-1.62,5.17-4.69-.43-9.36-2.36-12.59-5.86-2.23-2.39-3.62-5.46-4.26-8.65Z" style="fill:#191512;"/><path d="M158.49,85.46c2.36-.92,4.11-2.98,4.98-5.32,1.61,0,3.22,0,4.84,0-.92,3.14-2.6,6.14-5.11,8.28-1.79,1.52-4.04,2.54-6.4,2.7.49-1.91,1.1-3.78,1.69-5.66Z" style="fill:#191512;"/><path d="M177.04,80.13c1.56,0,3.11,0,4.67,0,.07,1.97.68,4.05,2.22,5.37-.46,1.9-1.11,3.75-1.65,5.63-2.46-1.29-4.23-3.73-4.88-6.41-.4-1.49-.42-3.05-.37-4.59Z" style="fill:#191512;"/><path d="M218.96,80.52c2.09,0,4.19,0,6.28,0-2.2,6.75-8.72,11.57-15.69,12.37.59-2.31,1.36-4.57,2.07-6.85,2.89-1.08,5.77-2.76,7.34-5.52Z" style="fill:#191512;"/><path d="M86.02,101.77c1.67-.02,3.34,0,5,0-.43,1.49-.86,2.97-1.29,4.46-1.66,0-3.33,0-4.99,0,.42-1.48.86-2.96,1.28-4.45Z" style="fill:#191512;"/><path d="M63.69,109.85c2.38-1.66,5.41-1.99,8.23-1.82,1.69.12,3.5.44,4.79,1.62.77.7,1.11,1.73,1.21,2.74-1.55.26-3.09.5-4.64.77-.07-1.08-.96-1.87-2-2-1.63-.22-3.43-.2-4.9.64-.82.47-1.56,1.82-.63,2.53,1.28.88,2.91.87,4.37,1.22,1.91.43,4.13.46,5.61,1.93,1.01.98,1.04,2.53.67,3.8-.49,1.92-1.87,3.55-3.62,4.47-3.04,1.62-6.62,2.12-10.02,1.69-1.61-.24-3.28-.7-4.52-1.82-.78-.7-1.13-1.73-1.22-2.75,1.62-.3,3.26-.52,4.89-.79.26,1.35,1.58,2.1,2.85,2.21,1.71.16,3.53.11,5.11-.65.82-.43,1.64-1.4,1.33-2.38-.61-1.02-1.94-1.07-2.99-1.26-2.15-.42-4.47-.52-6.35-1.76-1-.64-1.65-1.79-1.57-2.99.1-2.24,1.56-4.19,3.37-5.42Z" style="fill:#191512;"/><path d="M98.34,112.63c1.71-2.12,3.92-4.08,6.69-4.54,2.03-.3,4.38,0,5.87,1.56,1.33,1.54.83,3.77.34,5.55-1.16,4-2.31,8-3.47,12-1.66,0-3.33,0-4.99,0,1.12-3.9,2.25-7.79,3.38-11.69.28-.95.47-2.12-.23-2.94-.77-.92-2.11-.97-3.19-.72-1.84.45-3.47,1.7-4.4,3.36-.52.88-.85,1.86-1.12,2.84-.88,3.05-1.76,6.11-2.65,9.16-1.66,0-3.33,0-4.99,0,1.81-6.27,3.63-12.55,5.44-18.82,1.52,0,3.04,0,4.56,0-.41,1.42-.82,2.84-1.23,4.25Z" style="fill:#191512;"/><path d="M123.1,108.65c2.65-.73,5.45-.78,8.17-.52,1.6.15,3.36.7,4.24,2.16.79,1.2.36,2.68.05,3.96-.87,3.09-1.78,6.17-2.67,9.26-.35,1.2-.46,2.45-.42,3.7-1.58,0-3.17,0-4.75,0-.08-1.24.05-2.49.31-3.7-1.55,2.02-3.83,3.49-6.35,3.9-1.88.3-3.9.34-5.67-.45-1.29-.59-2.3-1.86-2.39-3.3-.1-1.91.82-3.8,2.24-5.06,1.42-1.27,3.23-1.99,5.05-2.45,3.09-.77,6.3-.88,9.48-.82.26-1.07.98-2.38.12-3.36-1.08-1-2.69-.93-4.06-.93-2.11.02-4.37.89-5.4,2.84-1.36-.02-2.75-.33-4.12-.49,1.15-2.46,3.63-4.01,6.16-4.73ZM122.04,118.71c-1.4.53-2.8,1.57-3.09,3.13-.24,1,.45,2.04,1.43,2.3,2.8.74,5.99-.31,7.72-2.65.92-1.09,1.23-2.51,1.6-3.85-2.58.04-5.23.15-7.67,1.07Z" style="fill:#191512;"/><path d="M154.2,110.94c2.3-1.96,5.32-3.03,8.34-2.95,1.86.03,3.94.37,5.27,1.81,1.16,1.25,1.36,3.06,1.25,4.7-1.48.18-2.96.33-4.44.51.08-.98.07-2.13-.74-2.83-1.03-.83-2.5-.78-3.72-.5-2.41.62-3.89,2.9-4.78,5.06-.62,1.73-1.24,3.71-.53,5.51.57,1.42,2.32,1.79,3.68,1.54,2.03-.27,3.56-1.84,4.55-3.53,1.39.13,2.79.24,4.19.38-1.42,2.81-3.78,5.2-6.8,6.23-2.49.86-5.33,1.04-7.81.07-2.32-.9-3.48-3.49-3.45-5.86.06-3.89,1.96-7.7,4.98-10.15Z" style="fill:#191512;"/><path d="M181.37,108.15c2.45-.34,5.17-.27,7.29,1.17,1.85,1.24,2.84,3.51,2.7,5.71-.19,2.88-1.36,5.69-3.27,7.85-2.56,2.85-6.29,4.66-10.14,4.7-2.13.05-4.49-.31-6.06-1.88-1.71-1.82-2.18-4.53-1.68-6.92,1-5.42,5.75-9.82,11.17-10.63ZM181.1,111.66c-2.44.53-4.09,2.71-4.95,4.92-.59,1.59-1.08,3.31-.75,5.01.21,1.13,1.11,2.1,2.24,2.33,1.96.42,4.15-.18,5.55-1.65,1.5-1.56,2.27-3.67,2.72-5.74.25-1.4.35-3.12-.73-4.21-1.1-.97-2.72-.93-4.08-.66Z" style="fill:#191512;"/><path d="M201.78,112.29c1.77-2.13,4.21-3.83,7.01-4.19,1.69-.2,3.58-.21,5.02.83,1.08.78,1.47,2.14,1.57,3.41,1.98-2.26,4.69-4.09,7.75-4.31,1.84-.13,3.93.1,5.28,1.49,1.09,1.09,1.35,2.78.91,4.22-1.29,4.49-2.6,8.98-3.89,13.47-1.74,0-3.49,0-5.23,0,1.16-4.04,2.36-8.08,3.5-12.13.31-1.04.13-2.43-.99-2.89-1.89-.71-4.14-.24-5.69,1.03-1.28,1.02-2.06,2.53-2.51,4.09-.96,3.3-1.91,6.61-2.87,9.91-1.76,0-3.53,0-5.29,0,.93-3.23,1.87-6.45,2.8-9.68.31-1.25.88-2.47.83-3.77,0-.91-.72-1.69-1.6-1.84-3.34-.68-6.64,1.85-7.61,4.97-1.03,3.43-1.99,6.89-3,10.32-1.71,0-3.43,0-5.14,0,1.81-6.28,3.63-12.55,5.44-18.83,1.61,0,3.22,0,4.84,0-.38,1.3-.75,2.61-1.13,3.91Z" style="fill:#191512;"/><path d="M249.15,109.98c2.68-1.77,6.05-2.36,9.19-1.79,1.34.26,2.68.88,3.47,2.04.86,1.23.99,2.8.89,4.26-1.47.17-2.95.33-4.42.51.12-1.14-.02-2.58-1.19-3.14-1.88-.81-4.21-.26-5.66,1.16-1.51,1.49-2.47,3.47-2.97,5.52-.32,1.37-.52,2.96.32,4.18.87,1.21,2.56,1.28,3.89.97,1.82-.43,3.15-1.89,4.08-3.44,1.39.12,2.79.25,4.19.38-.86,1.62-1.95,3.14-3.38,4.31-2.34,1.91-5.42,2.83-8.42,2.61-1.67-.09-3.42-.59-4.6-1.84-1.26-1.38-1.75-3.33-1.65-5.16.26-4.26,2.68-8.29,6.27-10.59Z" style="fill:#191512;"/><path d="M276.01,108.82c1.84-.93,4.05-1.09,6.01-.47,1.22.41,2.46,1.26,2.78,2.58.37,1.48,0,3.02-.41,4.46-1.14,3.94-2.27,7.88-3.41,11.81-1.67,0-3.33,0-4.99,0,1.16-4.06,2.37-8.11,3.5-12.18.34-1.1.06-2.5-1.07-3.01-1.49-.65-3.21-.11-4.51.72-1.65,1-2.72,2.73-3.26,4.55-.96,3.31-1.91,6.62-2.87,9.92-1.66,0-3.33,0-4.99,0,1.81-6.27,3.63-12.55,5.44-18.82,1.52,0,3.03,0,4.55,0-.41,1.42-.81,2.84-1.23,4.25,1.24-1.52,2.68-2.94,4.46-3.81Z" style="fill:#191512;"/><path d="M84.11,108.38h5c-1.82,6.27-3.63,12.55-5.45,18.82-1.66,0-3.32,0-4.98,0,1.8-6.28,3.63-12.55,5.44-18.82Z" style="fill:#191512;"/><path d="M138.82,122.28c1.8,0,3.6,0,5.4,0-.47,1.64-.94,3.28-1.42,4.92-1.8,0-3.6,0-5.4,0,.47-1.64.94-3.28,1.42-4.92Z" style="fill:#191512;"/><path d="M232.48,122.28c1.8,0,3.6,0,5.4,0-.47,1.64-.95,3.28-1.42,4.92-1.8,0-3.61,0-5.41,0,.47-1.64.94-3.28,1.43-4.92Z" style="fill:#191512;"/></svg>