<?xml version="1.0" encoding="UTF-8"?><svg id="uuid-5d1e1760-3aca-4852-93a1-678a6b98039f" xmlns="http://www.w3.org/2000/svg" viewBox="0 0 160 99.98">
<title>Taobao 2020 logo - Brandlogos.net</title><g id="uuid-b02b0bb5-dfc7-4b16-ad88-22bf214bc392"><g id="uuid-ed7c27e9-a4e3-4146-8916-65a578046859"><g id="uuid-1da3acae-5f21-4a11-a538-d8fbd9ac7033"><path id="uuid-c22b2569-bad5-45a1-9875-b2015bc84778" d="M112.84,14.05c12.12-3.78,27.71-4.1,34.58-2.13,5.72,1.64,6.31,4.92,4.23,10.08l4.77.76c5.14-7.18,2.65-13.61-4.93-16.5-5.43-2.07-14.26-2.43-22.05-1.65l.36-4.6-11.7.28.41,6.3c-7.18,1.86-13.68,4.59-19.35,7.67,1.42-1.69,2.74-3.74,4.69-7.64l-10.08-2.07c-1.37,6.82-3.2,13.1-6.4,18.44l2.39,1.81c7.97-4.99,14.72-8.14,23.07-10.74" style="fill:#ff5f00;"/><path id="uuid-1cfc89d0-0eba-40db-a37b-2f802f1f163f" d="M10.94,15.49c3.33,0,6.04-2.7,6.04-6.04s-2.7-6.04-6.04-6.04-6.04,2.7-6.04,6.04,2.7,6.04,6.04,6.04" style="fill:#ff5f00;"/><path id="uuid-54835050-ae67-4e2b-918c-fce8f5af760e" d="M53.92,3.36c-6.68-.23-15.43,1.79-21.42,5.06,1.52-1.83,2.99-5.01,3.54-6.82L25.9.06c-1.02,5.93-4.54,13.9-7.96,17.71l2.76,2.46c9.73-7.3,20.95-10.64,32.56-10.4,8.58.18,13.24,4.18,14.37,11.21,1.01,6.32,1.07,14.71-.3,21.79-2.29,11.81-6.75,14.89-18.23,12.56l-.7,3.97c3.29.85,5.85,1.37,9.24,1.52,15.26.69,20.39-9.73,20.65-28.7-.02-23.49-9.94-28.33-24.34-28.82" style="fill:#ff5f00;"/><path id="uuid-a5f03903-db28-4133-89b6-ce6d6901c77a" d="M139.32,45.16c0,2.72,2.2,4.95,4.92,4.98,2.72.03,4.92-2.14,4.92-4.86s-2.2-4.95-4.92-4.98c-2.72-.03-4.92,2.14-4.92,4.86" style="fill:#ff5f00;"/><path id="uuid-763da6ab-f866-4f44-9574-91df492ea50e" d="M56.5,51.49c4.02-.31,5.96-2.52,5.77-5.28l-.5-7.21c-4.26,2.37-8.82,4.34-13.14,5.8.06-3.3.1-6.58.13-9.86,3.53-.11,7.04-.22,10.47-.34,3.12-.11,4.52-1.41,4.63-5.3-5,.19-10.05.38-15.07.54,0-1.94,0-3.89,0-5.83,3.28-.1,6.27-.22,8.48-.33,3.12-.16,4.38-1.23,4.63-5.3-7.68.31-16.85.61-24.8.71.73-.89,1.42-1.86,2.07-2.91l-7.12-1.13c-2.01,3.22-5.04,6.61-8.27,9.49l2.69,2.87c1.69-.91,3.36-1.89,4.95-3.04,2.42-.03,5.28-.07,8.24-.13.02,1.89.02,3.86.03,5.86-4.91.13-9.75.22-14.45.26l-.33,5.12c4.83-.06,9.8-.16,14.78-.29-.02,4.04-.05,8.13-.13,11.99-.35.06-.7.12-1.03.17-4.19.63-6.18-.13-6.27-2.67-.04-1.08.18-2.48.61-4.35l-7.87-.95c-.78,2.54-1.06,5.44-.93,7.54.39,6.35,6.57,8.75,17.46,5.99,3.75-.95,10.58-3.81,14.59-6l.35,4.59Z" style="fill:#ff5f00;"/><path id="uuid-948eb4cb-fdb6-4418-a3f1-6e59c7c0f465" d="M7.96,20.32l-3.95,5.89c4.46,1.93,7.82,3.87,9.21,4.82,1.65,1.13,1.97,2.34,1.13,4.23-.79,1.77-5.98,9.54-14.35,19.14l10.72,5.11c4.44-10.58,8.03-19.41,9.18-23.89.63-2.45.77-4.92-.27-6.54-1.73-2.69-4.51-4.97-11.67-8.77" style="fill:#ff5f00;"/><path id="uuid-2745b3ff-bdf6-4697-b41a-abdab649ba19" d="M129.1,39.31c7.07-.18,13.44-.39,17.51-.6,3.03-.08,4.68-1.59,4.71-5.82-6.41.24-14.23.51-22.24.73-.02-2.74-.05-5.38-.1-7.78,5.75-.15,10.96-.31,14.81-.46,3.03-.06,4.77-1.57,4.86-5.8-14.99.44-32.59.93-47.46,1.05v5.67c5.4-.03,11.42-.11,17.37-.23.05,2.38.09,5.04.11,7.81-7.25.16-14.23.27-20.01.28v5.67c5.65-.05,12.82-.15,20.04-.3,0,4.46-.03,8.95-.11,12.89-10.22.12-20.22.15-29.11.05v6.03c20.98.12,44.86-.3,64.62-.9,3.54-.05,5.46-1.59,5.91-6.12-9.52.32-20.21.6-31.02.79.06-3.96.11-8.47.12-12.97" style="fill:#ff5f00;"/></g><g id="uuid-a1a31a4b-beac-4f9b-b268-d9f4c46191dc"><path id="uuid-f55469e0-7a0d-48b2-91a7-bf78dc98dacc" d="M30.01,70.83v-.17s-26.66-.02-26.66-.02v4.41h10.06v24.72h5.94v-24.72c1.93.02,6.47,0,6.84,0,2.41,0,3.58-1.36,3.84-4.22" style="fill:#ff5f00;"/><path id="uuid-f5748bf3-0d96-4e4b-8c39-5529a1b2e7aa" d="M92.48,96.44h-.02c-3.98,0-5.38-3.13-5.65-6.49-.05-.48-.07-.99-.07-1.51,0-.15,0-.3,0-.45v-.02c.04-2.8.76-4.83,2.12-6.01.92-.89,2.13-1.37,3.6-1.37h.02c3.68,0,5.79,3.01,5.79,7.83s-2.11,8-5.79,8M93.57,76.72c-3.01-.06-5.17.95-6.63,2.16l-.03-9.18h-5.43v30.08c1.73-.16,3.56-1.09,4.77-2.31,2.05,1.96,4.15,2.51,6.74,2.51,5.63,0,10.85-4.44,10.85-11.39,0-7.47-4.6-11.75-10.26-11.87" style="fill:#ff5f00;"/><path id="uuid-d97830c5-46f5-4c0b-a348-160733288e57" d="M144.92,96.6h-.02c-3.66,0-5.7-3.28-5.7-8.26s2.04-8.09,5.7-8.09h.02c3.66,0,5.71,3.11,5.71,8.09s-2.04,8.26-5.71,8.26M144.91,76.72c-7.46,0-11.74,4.94-11.74,11.62s4.28,11.64,11.74,11.64,11.74-4.95,11.74-11.64-4.28-11.62-11.74-11.62" style="fill:#ff5f00;"/><path id="uuid-b30492c9-33e3-4a97-b090-2c051a29095a" d="M118.11,96.56c-2.92,0-4.89-2.31-4.86-5.16.02-2.85,2.03-5.16,4.95-5.16s4.89,2.31,4.86,5.16c-.02,2.85-2.03,5.16-4.95,5.16M128.22,93.61s.05-4.72.08-7.53c.06-5.01-2.37-7.38-4.8-8.46-1.57-.69-3.69-.91-6.29-.91-3.22,0-6.71.79-6.71.79l-.53,3.57c3.88-1.2,8.52-1.37,10.51-.55,1.68.69,2.6,1.84,2.46,4.62-1.13-1.25-3.58-2.24-6.65-2.01-4.6.24-8.5,3.23-8.54,8.13-.05,5.62,3.97,8.72,8.39,8.72,2.74,0,4.96-.9,6.64-2.32.42.75,1.67,2.12,3.65,2.12,2.46,0,3.92-1.87,4.38-2.64-1.76.16-2.59-.61-2.57-3.52" style="fill:#ff5f00;"/><path id="uuid-01e120fd-418c-41c0-b2ac-e6b32ca05979" d="M38.2,96.56c-2.92,0-4.89-2.31-4.86-5.16.02-2.85,2.03-5.16,4.95-5.16s4.89,2.31,4.86,5.16c-.03,2.85-2.03,5.16-4.95,5.16M48.32,93.61s.05-4.72.08-7.53c.06-5.01-2.36-7.38-4.8-8.46-1.57-.69-3.69-.91-6.29-.91-3.22,0-6.71.79-6.71.79l-.53,3.57c3.88-1.2,8.52-1.37,10.51-.55,1.68.69,2.6,1.84,2.46,4.62-1.13-1.25-3.58-2.24-6.65-2.01-4.6.24-8.5,3.23-8.54,8.13-.05,5.62,3.97,8.72,8.39,8.72,2.74,0,4.96-.9,6.64-2.32.42.75,1.67,2.12,3.65,2.12,2.46,0,3.92-1.87,4.38-2.64-1.76.16-2.59-.61-2.57-3.52" style="fill:#ff5f00;"/><path id="uuid-6faad29a-ba6e-4f7a-95d1-1e0c78b3eda5" d="M65.07,96.6h-.02c-3.66,0-5.71-3.28-5.71-8.26s2.05-8.09,5.71-8.09h.02c3.66,0,5.71,3.11,5.71,8.09s-2.05,8.26-5.71,8.26M65.07,76.72c-7.45,0-11.74,4.94-11.74,11.62s4.28,11.64,11.74,11.64,11.74-4.95,11.74-11.64-4.28-11.62-11.74-11.62" style="fill:#ff5f00;"/></g></g></g></svg>